<?xml version="1.0" standalone="no"?>
<!DOCTYPE svg PUBLIC "-//W3C//DTD SVG 20010904//EN"
 "http://www.w3.org/TR/2001/REC-SVG-20010904/DTD/svg10.dtd">
<svg version="1.0" xmlns="http://www.w3.org/2000/svg"
 width="1400.000000pt" height="1600.000000pt" viewBox="0 0 1400.000000 1600.000000"
 preserveAspectRatio="xMidYMid meet">

<g transform="translate(0.000000,1600.000000) scale(0.100000,-0.100000)"
fill="#000000" stroke="none">
<path d="M380 8075 l0 -7545 6665 0 6665 0 0 7545 0 7545 -6665 0 -6665 0 0
-7545z m415 7360 l13 -30 1 33 1 32 290 0 290 -1 1 -27 2 -27 4 28 c2 15 9 27
15 27 7 0 9 -15 5 -43 -3 -23 -2 -49 3 -57 7 -10 10 3 10 42 l0 58 495 0 495
0 2 -38 1 -37 4 38 4 37 145 0 144 0 0 -46 c0 -25 4 -43 9 -40 5 3 7 24 4 47
l-6 40 72 -2 c40 -2 76 -6 81 -9 4 -3 10 -19 13 -35 4 -27 4 -27 6 8 l1 37 90
0 90 0 1 -27 2 -28 4 28 c4 25 7 27 54 27 l50 0 -5 -72 -5 -73 10 72 11 72
139 0 139 0 1 -32 1 -32 7 29 c4 19 13 30 26 32 11 2 335 3 720 3 385 0 710 0
723 0 18 1 22 -5 23 -32 1 -33 3 -30 13 13 5 24 8 25 58 20 29 -3 83 -3 121 0
37 3 67 2 67 -1 0 -4 15 -4 33 0 17 4 43 6 57 4 14 -1 84 -2 155 -3 123 0 669
-2 690 -1 207 4 887 1 894 -4 6 -3 15 -4 20 0 8 5 549 9 576 4 6 -1 13 -1 17
0 35 5 1478 2 1486 -3 7 -4 12 -4 12 1 0 4 984 8 2188 8 l2187 0 0 -1200 c-1
-1190 -1 -1201 -23 -1342 -23 -146 -54 -278 -98 -418 -59 -186 -104 -291 -284
-660 -154 -313 -285 -585 -360 -740 -101 -211 -251 -527 -297 -625 l-45 -95
-78 230 c-227 674 -450 1245 -720 1845 -166 367 -438 925 -447 916 -4 -4 -19
-48 -34 -99 -148 -509 -312 -1081 -359 -1252 -33 -116 -71 -251 -85 -300 -15
-50 -29 -98 -32 -107 -6 -21 -8 -21 -35 -7 -55 29 -579 199 -616 199 -12 0
-25 7 -28 15 -3 8 44 102 106 212 62 109 133 235 159 281 25 45 50 82 56 82
11 0 218 -58 288 -81 23 -8 41 -9 46 -3 8 9 33 90 150 489 63 219 282 943 360
1196 34 108 61 201 61 205 0 5 -227 9 -504 9 -277 0 -507 3 -511 6 -3 4 -1 18
6 31 9 21 7 32 -10 65 -11 23 -35 55 -52 73 -28 28 -37 31 -68 25 -20 -4 -39
-10 -42 -13 -4 -4 -9 -48 -12 -98 l-6 -91 62 -46 c34 -25 70 -54 80 -64 17
-19 16 -22 -18 -66 -20 -26 -39 -47 -43 -47 -4 1 -38 30 -77 66 -54 50 -74 64
-90 58 -11 -3 -48 -14 -83 -23 l-62 -16 6 -83 7 -84 -69 7 c-38 4 -72 9 -75
11 -4 2 -10 44 -13 93 -7 88 -8 91 -39 110 -18 11 -43 31 -56 45 -14 14 -31
26 -38 26 -8 0 -45 -18 -83 -39 l-69 -39 -28 44 c-15 24 -35 44 -43 44 -331 0
-1525 1 -3231 0 l-2166 0 -7 -48 c-3 -27 -9 -52 -12 -55 -3 -3 -30 3 -59 13
-30 10 -74 22 -98 25 -42 7 -44 5 -57 -24 -7 -17 -32 -49 -56 -71 -24 -22 -44
-42 -44 -45 0 -2 16 -37 35 -76 19 -40 35 -77 35 -84 0 -10 -129 -80 -135 -73
-2 2 -21 42 -43 89 l-39 86 -49 7 c-27 3 -60 9 -74 12 -23 5 -30 -2 -73 -80
-26 -47 -51 -86 -54 -86 -10 0 -107 63 -115 74 -4 5 20 48 52 95 l58 85 -21
40 c-11 23 -26 64 -32 91 l-11 50 -65 22 c-91 32 -118 30 -150 -9 l-26 -31
-104 -1 -104 0 0 -151 c-1 -125 -5 -164 -24 -235 -72 -268 -228 -453 -475
-565 -110 -50 -189 -68 -296 -69 -213 -1 -372 101 -465 299 -52 110 -68 184
-63 300 7 150 53 251 171 373 37 37 46 52 34 52 -27 0 -11 18 23 25 17 4 30
11 30 17 0 6 2 9 6 6 3 -3 31 7 63 22 126 61 225 75 315 43 56 -20 141 -92
149 -125 3 -13 13 -43 22 -68 48 -128 -28 -305 -159 -372 -60 -31 -143 -34
-185 -8 -38 24 -35 30 31 54 69 25 108 74 108 134 0 92 -55 142 -133 121 -137
-36 -240 -180 -225 -314 6 -52 54 -157 92 -202 82 -97 252 -96 423 2 147 85
237 266 236 476 -2 327 -188 529 -488 529 -249 0 -565 -177 -714 -401 -88
-132 -137 -307 -127 -455 22 -304 166 -501 443 -605 43 -16 152 -45 243 -64
523 -112 790 -182 873 -229 311 -173 508 -476 583 -892 24 -132 24 -366 0
-487 -67 -344 -268 -659 -540 -846 -320 -220 -645 -250 -843 -77 -98 85 -197
288 -234 477 -55 287 14 518 196 657 95 71 159 95 261 95 72 1 89 -3 147 -31
40 -20 81 -50 102 -75 105 -123 164 -385 120 -533 -31 -105 -132 -210 -226
-235 -120 -32 -218 58 -227 208 -4 55 -1 69 21 101 13 20 38 45 56 55 l31 18
-6 -45 c-8 -52 9 -101 37 -117 14 -7 29 -5 55 7 54 26 68 53 62 127 -16 198
-181 270 -337 146 -133 -104 -147 -308 -38 -527 106 -213 344 -243 571 -72
137 103 218 270 248 510 10 85 9 115 -4 207 -33 215 -93 345 -222 476 -112
115 -252 202 -481 301 -71 31 -137 61 -146 65 -21 12 -225 93 -370 146 -323
120 -551 290 -680 505 -59 100 -118 268 -146 415 -20 108 -23 159 -23 310 1
99 -3 222 -9 273 -6 51 -9 98 -6 103 4 5 6 319 7 699 l0 690 49 0 49 0 2 -52
2 -53 3 52 c4 50 5 52 36 55 18 2 49 1 71 -2 30 -4 41 -11 51 -35z m7665
-1320 c346 -107 400 -127 400 -146 0 -52 -24 -159 -35 -159 -7 0 -57 9 -111
20 -54 11 -101 17 -105 13 -8 -10 -32 -144 -26 -150 3 -2 51 -17 108 -32 71
-19 105 -33 107 -43 3 -17 -25 -188 -32 -195 -2 -2 -57 11 -122 30 l-119 34
-8 -51 c-4 -28 -6 -66 -5 -85 3 -35 3 -35 111 -70 100 -33 107 -37 107 -61 0
-28 -19 -141 -26 -151 -2 -4 -43 4 -91 17 -49 13 -100 24 -114 24 -26 0 -27
-2 -37 -92 -5 -51 -9 -95 -7 -96 2 -2 50 -17 107 -34 57 -16 106 -33 110 -36
7 -7 -54 -358 -92 -528 -176 -791 -394 -1255 -673 -1435 -130 -84 -300 -107
-439 -60 -172 58 -365 258 -478 496 -46 95 -120 293 -120 319 0 7 29 36 64 64
l65 51 47 -87 c91 -170 229 -324 336 -376 147 -72 289 -50 402 61 94 92 176
265 237 503 23 91 70 372 63 379 -2 2 -37 -12 -76 -31 -266 -129 -588 -76
-812 133 -257 241 -378 570 -346 941 18 201 76 355 189 506 176 232 410 336
696 310 150 -13 311 -79 434 -178 39 -32 63 -46 65 -38 2 7 9 71 15 142 6 70
13 132 16 136 5 8 85 -11 195 -45z m-3337 -362 c15 -164 27 -304 27 -310 0
-27 16 -11 33 32 33 79 152 248 221 312 143 135 329 196 477 159 103 -27 149
-54 234 -140 156 -157 226 -340 358 -936 95 -427 157 -716 157 -734 0 -6 -33
-20 -72 -30 -94 -24 -525 -164 -560 -182 -15 -8 -29 -10 -32 -5 -8 12 -20 157
-66 751 -42 548 -50 625 -81 726 -72 235 -283 245 -442 22 -50 -70 -120 -206
-162 -314 l-27 -71 56 -569 c31 -313 58 -581 61 -595 4 -25 -2 -29 -103 -74
-59 -26 -126 -57 -150 -68 -23 -11 -44 -18 -46 -16 -2 2 -25 85 -51 184 -25
99 -55 209 -65 245 -10 36 -32 117 -48 180 -112 421 -378 1372 -397 1422 -5
13 20 29 132 83 76 37 203 96 283 131 80 35 159 71 175 78 62 30 58 43 88
-281z m4519 16 c62 -17 142 -39 178 -48 l65 -17 -2 -80 c-2 -129 -168 -1872
-189 -1991 l-6 -31 -81 35 c-136 59 -468 190 -531 209 -32 10 -60 24 -63 30
-10 26 177 744 408 1569 109 387 99 355 105 355 2 0 54 -14 116 -31z m-5764
-377 c40 -147 101 -373 136 -502 139 -508 376 -1399 400 -1503 8 -33 20 -29
-169 -57 -123 -18 -426 -75 -511 -96 -19 -5 -22 1 -32 68 -20 127 -90 671
-127 988 -19 168 -42 359 -50 425 -8 66 -26 230 -40 365 -15 135 -32 292 -40
350 -7 58 -10 108 -7 112 10 10 324 116 347 117 18 1 28 -28 93 -267z m-3249
-632 c7 -59 9 -62 16 -32 8 35 25 44 25 12 0 -11 4 -20 9 -20 11 0 31 -54 32
-89 0 -14 3 -20 6 -13 9 23 29 12 110 -65 44 -43 93 -89 107 -102 l26 -23 0
-5098 0 -5098 -101 -68 c-130 -89 -153 -104 -161 -104 -4 0 -9 12 -11 28 -3
22 -4 21 -6 -10 -1 -30 -6 -39 -31 -50 -17 -7 -30 -16 -30 -20 0 -5 -4 -8 -9
-8 -6 0 -12 21 -14 48 l-4 47 0 -52 c1 -41 -4 -58 -21 -76 -20 -22 -31 -79
-14 -75 4 0 24 -6 44 -15 21 -10 44 -17 52 -17 8 0 18 -4 21 -10 3 -5 23 -10
44 -10 20 0 75 -11 121 -24 395 -112 1081 -274 1595 -376 349 -70 375 -77 376
-107 0 -15 2 -14 11 5 11 21 28 30 28 15 0 -5 19 -9 43 -9 23 -1 53 -4 67 -7
14 -3 39 -9 55 -12 52 -10 55 -13 57 -57 l1 -43 4 38 c2 20 7 38 11 38 40 7
63 6 67 -2 4 -5 17 -9 31 -9 13 0 24 -4 24 -10 0 -6 9 -6 25 0 22 8 25 6 34
-23 l9 -32 1 33 c1 26 5 33 19 30 12 -2 20 -18 26 -56 5 -28 13 -52 18 -52 13
0 9 68 -4 72 -13 5 -4 38 10 38 5 0 14 -15 20 -32 10 -32 10 -32 11 -6 1 38
11 57 25 52 16 -6 28 48 21 90 -12 62 36 86 149 75 33 -3 124 -15 201 -27 77
-11 192 -28 255 -37 63 -9 126 -19 140 -20 14 -2 54 -7 90 -10 35 -3 68 -11
72 -18 6 -9 8 -9 8 1 0 8 5 10 13 5 6 -4 37 -8 67 -8 67 -2 162 -13 213 -26
20 -6 43 -7 49 -3 6 4 17 -1 25 -12 11 -15 16 -16 22 -6 6 10 28 11 92 6 46
-4 92 -7 101 -6 18 1 25 -15 31 -78 3 -25 4 -20 5 18 l2 52 78 -6 c42 -4 87
-6 100 -6 12 1 22 -2 22 -6 0 -4 25 -6 55 -6 l55 1 0 -63 c0 -39 4 -64 11 -64
7 0 10 20 7 56 -3 63 8 73 56 49 22 -12 27 -12 35 3 14 25 37 0 47 -51 l8 -42
4 48 c3 44 22 68 22 30 1 -17 1 -17 14 0 10 13 15 15 19 5 4 -10 7 -11 18 0
16 15 75 16 84 2 5 -8 11 -7 21 1 10 8 14 8 14 0 0 -7 8 -8 24 -1 13 5 27 6
30 3 6 -6 42 -9 139 -12 30 -1 37 -5 37 -21 0 -21 0 -21 21 -2 17 17 34 19
115 18 72 -1 97 -5 104 -16 7 -11 10 -12 10 -2 0 9 9 12 28 8 76 -16 180 -19
677 -18 358 0 544 -3 553 -10 7 -7 12 -7 12 -1 0 13 121 14 137 2 7 -7 14 -6
18 1 10 16 42 12 49 -6 4 -9 4 -25 1 -35 -4 -10 -3 -24 2 -31 5 -8 10 4 13 32
l5 45 85 2 c127 2 226 10 241 18 7 5 17 1 25 -9 11 -16 13 -16 26 1 12 17 32
19 222 21 115 2 217 7 226 12 25 13 110 6 120 -10 6 -10 9 -8 12 6 3 17 14 19
101 21 54 1 104 4 112 7 8 3 17 1 20 -5 4 -5 12 -6 18 -2 6 4 23 8 37 10 64 8
341 35 390 38 30 2 90 7 132 10 43 3 111 10 152 15 40 6 78 10 82 8 5 -1 41 4
79 10 39 7 102 14 140 18 63 5 136 14 235 29 452 68 556 77 582 52 8 -9 20
-42 27 -75 16 -81 29 -87 168 -77 155 11 159 11 169 17 16 10 76 20 130 23 29
2 56 5 61 8 11 7 64 17 110 22 21 2 47 6 58 9 11 2 61 11 110 20 50 9 176 35
280 57 105 22 251 54 325 69 518 110 1383 333 1422 367 9 8 18 23 21 34 6 23
-16 41 -260 207 -83 57 -153 109 -155 115 -2 7 -1 2091 2 4632 l5 4621 44 89
c49 102 78 160 113 225 13 25 32 65 41 88 10 24 22 40 27 37 6 -4 10 10 10 35
0 24 7 48 15 56 8 9 15 26 15 39 0 13 4 26 10 30 5 3 19 38 31 78 12 40 25 81
30 92 4 11 15 47 24 80 9 33 26 85 37 115 19 51 22 68 26 143 1 15 7 27 12 27
7 0 10 -2000 10 -5980 l0 -5980 -3045 0 -3045 0 -2 33 -1 32 -4 -32 -4 -33
-225 0 -224 0 -1 23 -2 22 -4 -22 -4 -22 -810 0 -809 0 0 34 c0 19 -4 35 -10
35 -5 0 -10 -15 -10 -34 l0 -35 -292 1 c-263 0 -294 2 -300 16 -6 16 -7 16 -7
0 -1 -15 -35 -16 -398 -15 -373 2 -398 3 -395 20 2 9 -2 17 -8 17 -5 0 -10 -9
-10 -20 0 -19 -9 -19 -332 -17 l-333 2 -6 40 -6 40 -2 -42 -1 -42 -225 1 -225
0 -2 37 -1 36 -4 -37 -4 -38 -60 0 c-53 0 -61 3 -69 22 l-9 23 0 -23 c-1 -22
-4 -23 -81 -21 -69 2 -80 5 -80 20 0 10 -4 21 -10 24 -5 3 -10 -2 -10 -13 0
-10 -6 -20 -12 -21 -7 -2 -147 -5 -310 -7 l-298 -4 -1 23 -2 22 -4 -22 c-4
-19 -11 -23 -44 -23 -30 0 -39 4 -39 17 0 16 -1 16 -13 0 -11 -14 -42 -16
-292 -14 l-280 2 -6 40 -6 40 -2 -42 c-1 -43 -1 -43 -40 -43 -37 0 -39 2 -48
43 l-11 42 -1 -41 -1 -42 -275 0 -276 0 0 391 c-1 216 -1 412 -1 437 -1 61 0
639 0 670 1 19 0 878 -1 1405 0 76 1 560 1 595 0 19 0 352 0 740 0 388 0 725
0 750 0 25 0 165 0 313 0 147 0 284 0 305 0 30 1 1428 0 1482 0 109 3 2028 4
2175 0 110 1 215 1 233 -2 844 -3 1692 -3 1867 3 753 5 840 19 874 l14 34 29
-64 c16 -35 33 -93 37 -129z m9610 -1753 c160 -61 310 -211 348 -350 25 -88
48 -101 200 -108 122 -6 122 -6 179 -45 63 -44 127 -121 167 -204 38 -79 47
-123 47 -227 0 -81 3 -95 24 -120 30 -36 61 -107 76 -176 20 -86 8 -255 -23
-349 -30 -91 -41 -108 -125 -211 -90 -109 -96 -111 -283 -115 -171 -4 -202 3
-235 54 -27 40 -50 48 -74 24 -11 -11 -20 -25 -20 -31 0 -5 22 -34 49 -62 28
-30 68 -91 94 -142 l45 -91 104 -38 c283 -104 566 -241 756 -366 447 -293 622
-608 521 -937 -91 -293 -458 -603 -984 -830 -197 -86 -270 -113 -288 -107 -12
4 -17 2 -13 -4 3 -5 -2 -13 -12 -17 -36 -14 -380 -124 -451 -144 l-74 -20 30
32 c16 18 40 49 52 69 12 21 40 51 62 68 21 18 39 36 39 41 0 5 10 26 23 47
13 20 31 63 41 94 10 31 21 58 25 60 4 2 20 34 36 73 15 38 36 86 46 105 11
19 19 38 19 42 0 4 11 31 24 60 14 29 28 66 31 81 4 15 10 27 14 27 4 0 8 6 8
13 1 10 53 174 70 217 3 8 8 35 10 60 2 25 13 79 23 120 35 140 45 255 44 530
-1 260 -6 355 -24 395 -5 11 -11 31 -14 45 -2 14 -2 -4 0 -40 3 -36 8 -175 10
-310 6 -247 0 -326 -33 -490 -9 -41 -20 -100 -25 -130 -43 -251 -308 -888
-439 -1055 -50 -64 -91 -92 -178 -120 -30 -10 -69 -28 -88 -41 -30 -20 -42
-22 -106 -17 -74 6 -160 41 -171 69 -42 109 -188 -424 -235 -858 -14 -121 -14
-468 -1 -502 6 -18 5 -40 -5 -73 -43 -146 -76 -433 -54 -474 10 -19 12 -19 28
-5 10 9 26 16 36 16 51 0 268 102 321 151 11 10 28 19 36 19 18 0 17 2 39
-225 6 -66 17 -160 24 -210 15 -100 16 -99 -50 -115 -55 -14 -133 -54 -175
-90 -41 -35 -70 -38 -96 -9 -15 17 -19 38 -21 108 -1 74 -6 95 -33 151 -45 94
-72 136 -104 161 -66 52 -83 -31 -42 -196 14 -57 26 -110 26 -120 0 -9 -15
-32 -33 -50 -38 -38 -61 -38 -112 0 -57 42 -113 65 -160 65 -40 0 -47 3 -56
28 -29 77 -99 198 -134 233 -22 22 -60 47 -85 56 -54 20 -197 111 -225 142
-47 53 -16 329 54 488 30 70 32 78 32 207 0 151 -6 171 -70 235 -50 50 -173
200 -235 287 -116 161 -129 172 -258 198 -14 3 -40 18 -57 32 -38 31 -111 43
-271 44 -210 1 -340 28 -384 80 -13 16 -27 26 -30 23 -11 -11 -6 -59 7 -74 29
-36 175 -76 310 -84 92 -6 249 -14 286 -15 16 0 21 -4 15 -9 -47 -47 -2058
-48 -2107 -1 -10 9 65 17 182 19 250 4 421 58 421 132 0 40 -13 43 -38 9 -38
-51 -123 -70 -365 -80 l-209 -9 -51 -35 c-29 -20 -59 -36 -68 -36 -30 0 -103
-30 -127 -53 -13 -12 -43 -51 -67 -87 -115 -170 -173 -245 -271 -350 -55 -59
-64 -92 -64 -224 1 -86 5 -123 21 -166 31 -83 66 -208 78 -276 16 -90 14 -225
-4 -251 -19 -28 -170 -127 -215 -142 -64 -21 -115 -81 -176 -205 l-56 -116
-39 0 c-41 0 -102 -26 -155 -66 -43 -33 -76 -31 -109 8 -30 36 -30 51 5 193
29 117 23 185 -15 185 -19 0 -62 -44 -80 -83 -9 -18 -31 -61 -50 -97 -30 -59
-34 -73 -34 -150 -1 -139 -34 -161 -126 -87 -35 29 -78 52 -125 67 -39 13 -74
29 -77 37 -3 8 2 71 10 141 9 70 19 165 22 212 10 150 14 170 34 170 10 0 26
-9 36 -20 45 -50 248 -150 304 -150 8 0 22 -7 32 -16 16 -14 18 -14 27 3 22
41 -14 374 -53 482 -9 25 -9 43 -2 61 15 40 11 418 -7 570 -31 261 -94 550
-164 750 -22 64 -28 68 -59 38 -43 -39 -82 -55 -157 -61 -63 -6 -73 -4 -100
17 -17 12 -56 31 -86 41 -78 24 -121 55 -173 122 -42 56 -116 190 -132 243 -4
14 -20 52 -35 85 -47 103 -87 197 -115 270 -54 142 -64 171 -75 215 -6 25 -18
62 -26 83 -8 21 -21 81 -30 134 -8 53 -17 100 -20 104 -28 46 -58 537 -43 704
18 193 19 211 9 188 -5 -12 -16 -66 -26 -120 -32 -187 -8 -758 36 -858 5 -11
11 -49 15 -84 3 -35 12 -80 19 -100 26 -71 36 -108 36 -127 0 -11 9 -37 20
-59 11 -21 25 -54 31 -74 6 -20 19 -55 30 -78 10 -24 19 -49 19 -56 0 -7 7
-22 14 -33 8 -12 29 -57 46 -100 17 -43 37 -91 45 -106 8 -14 15 -34 15 -43 0
-31 94 -192 122 -208 15 -8 43 -38 64 -66 20 -29 45 -56 55 -62 11 -5 16 -15
13 -21 -4 -7 -2 -8 5 -4 6 4 18 3 25 -3 7 -6 30 -15 52 -21 39 -10 39 -10 -11
-5 -27 3 -160 37 -295 76 -264 77 -258 75 -280 87 -8 5 -46 19 -85 31 -135 43
-456 179 -580 246 -199 107 -333 195 -455 300 -279 238 -390 501 -319 755 103
371 552 708 1319 988 74 27 150 53 168 57 28 6 38 17 71 83 22 43 58 95 80
117 41 39 51 71 29 93 -21 21 -41 13 -79 -30 l-37 -43 -140 -3 c-203 -5 -218
1 -325 128 -138 164 -178 453 -92 655 9 22 26 50 37 62 18 19 22 41 27 150 5
99 11 138 28 173 11 25 23 52 26 60 13 41 102 143 153 177 56 37 59 38 168 42
99 3 114 6 143 28 18 14 33 31 33 37 0 76 85 205 198 303 99 85 183 113 339
113 102 0 122 -3 215 -35 82 -28 110 -43 147 -78 92 -88 150 -126 201 -133
117 -15 267 -202 321 -400 17 -63 21 -105 21 -238 0 -251 -30 -337 -159 -457
-61 -56 -142 -101 -203 -114 -45 -9 -60 -22 -60 -50 0 -34 17 -42 100 -48 63
-4 86 -11 144 -43 88 -50 142 -97 166 -144 11 -21 24 -41 29 -44 5 -4 96 5
203 19 1097 141 2471 141 3589 0 108 -14 205 -25 217 -25 14 0 30 14 47 40 38
60 91 105 179 151 68 36 91 42 163 48 87 7 105 17 96 52 -7 25 -22 35 -61 43
-69 13 -166 69 -235 135 -86 82 -102 109 -127 207 -29 114 -28 359 0 463 55
197 213 389 335 405 56 7 91 28 190 115 64 56 80 64 189 99 102 33 134 39 222
40 95 2 109 0 193 -31z m-6704 -4580 c33 -19 44 -34 70 -95 38 -91 73 -136
128 -160 23 -10 76 -40 117 -65 41 -26 80 -47 86 -47 28 0 73 69 115 178 7 17
16 22 44 22 102 0 187 -112 217 -288 16 -97 -4 -157 -79 -240 -32 -34 -82 -90
-112 -123 -30 -34 -82 -81 -115 -105 -49 -36 -68 -44 -104 -44 -50 0 -76 23
-140 123 -38 58 -71 79 -96 58 -8 -7 -13 -36 -13 -84 -1 -192 -63 -287 -135
-209 -33 35 -46 60 -48 97 -6 81 8 95 50 50 34 -36 58 -32 76 11 12 29 14 73
11 238 -6 282 -14 316 -65 308 -17 -2 -43 -17 -58 -33 -34 -35 -79 -38 -118
-8 -23 18 -26 27 -26 86 0 61 -3 69 -46 131 l-46 65 16 42 c21 54 51 81 99 88
30 5 40 2 50 -14 16 -26 22 -24 37 11 15 36 32 37 85 7z m7195 5 c0 -33 22
-44 45 -22 16 15 29 18 56 14 43 -7 59 -19 87 -65 30 -50 28 -74 -12 -122 -49
-61 -56 -79 -56 -146 0 -52 -3 -62 -26 -80 -38 -30 -86 -27 -126 8 -18 15 -46
30 -61 33 -24 5 -30 1 -43 -30 -8 -19 -12 -37 -9 -40 3 -3 5 0 5 6 0 7 5 12
11 12 6 0 1 -16 -11 -35 -20 -33 -21 -44 -18 -250 3 -203 4 -216 24 -236 l21
-21 37 32 c44 39 66 34 66 -15 0 -45 -20 -92 -54 -127 -39 -41 -86 -36 -110
11 -15 29 -35 148 -39 231 -2 51 -4 55 -29 58 -22 3 -35 -8 -87 -77 -73 -95
-93 -111 -145 -111 -68 0 -134 52 -320 251 -94 101 -111 141 -103 238 16 184
124 323 241 309 25 -3 32 -10 50 -62 12 -32 38 -77 58 -100 l37 -41 63 34 c35
18 96 51 137 72 81 42 144 111 156 171 11 50 33 78 78 99 53 24 77 24 77 1z
m-7140 -442 c0 -5 -2 -10 -4 -10 -3 0 -8 5 -11 10 -3 6 -1 10 4 10 6 0 11 -4
11 -10z m-1945 -2126 c263 -70 503 -130 745 -184 138 -31 141 -32 130 -71 -5
-18 -13 -36 -17 -40 -10 -10 -645 141 -870 207 -16 4 -23 2 -23 -8 0 -28 193
-595 324 -953 14 -38 26 -77 26 -86 0 -26 -608 -485 -903 -682 -61 -40 -56
-57 22 -73 35 -7 84 -20 110 -28 25 -8 100 -26 166 -41 66 -14 176 -39 245
-55 69 -16 188 -43 265 -60 278 -63 422 -101 515 -136 52 -20 140 -52 195 -70
108 -37 145 -54 145 -64 0 -21 -946 183 -1460 316 -118 30 -251 64 -295 75
-139 34 -185 50 -185 62 1 7 49 44 108 82 130 86 556 390 712 509 63 48 141
107 172 129 31 23 60 49 63 58 3 9 -4 41 -16 70 -68 172 -359 1048 -359 1082
0 11 3 10 185 -39z m10975 32 c0 -32 -199 -643 -306 -938 -35 -97 -64 -186
-64 -196 0 -21 9 -29 255 -214 213 -160 476 -348 669 -478 159 -108 158 -104
19 -139 -49 -12 -135 -35 -193 -51 -328 -90 -919 -226 -1410 -323 -218 -44
-230 -46 -230 -38 0 10 67 37 210 87 74 25 151 53 170 61 46 19 229 69 360 99
58 13 177 42 265 64 88 23 196 48 240 55 63 12 382 91 443 110 18 6 15 25 -6
33 -9 4 -80 52 -156 107 -75 55 -147 107 -159 115 -46 31 -356 266 -442 335
-49 39 -107 84 -128 100 -32 23 -38 33 -34 54 3 14 44 132 91 261 97 267 260
759 253 766 -2 3 -96 -18 -208 -45 -298 -73 -410 -99 -538 -127 -63 -14 -118
-27 -122 -30 -12 -7 -39 37 -39 63 0 15 7 24 23 28 12 3 101 23 197 45 196 45
550 134 710 179 124 34 130 35 130 17z m-9597 -121 c395 -78 866 -158 1147
-195 270 -35 558 -70 650 -80 437 -45 631 -60 1130 -90 660 -40 1526 -38 2270
5 388 23 580 38 1040 85 586 60 1292 170 1974 309 82 17 151 29 153 28 3 -4
127 -449 213 -767 23 -85 57 -209 75 -275 19 -66 82 -295 141 -510 58 -214
109 -398 111 -407 6 -22 8 -21 -167 -59 -516 -109 -1270 -233 -1845 -304 -71
-8 -164 -20 -205 -25 -276 -35 -776 -78 -1345 -115 -464 -30 -1658 -42 -2167
-22 -705 27 -1387 82 -2028 163 -151 20 -301 38 -333 41 -32 3 -60 10 -63 14
-3 5 11 30 30 55 36 47 44 85 27 129 -6 15 -9 10 -15 -25 -10 -65 -47 -115
-109 -147 -48 -26 -61 -28 -163 -28 -107 0 -112 1 -187 38 -136 67 -192 140
-352 455 -70 140 -111 208 -148 248 -28 31 -54 51 -59 46 -9 -9 -18 -42 -74
-261 -18 -74 -39 -138 -46 -143 -14 -9 -152 -11 -160 -3 -3 3 4 36 14 73 35
122 77 275 118 432 23 85 43 162 45 170 3 8 22 81 44 161 65 244 111 341 201
422 96 86 228 137 356 137 56 0 72 -4 91 -22 30 -28 29 -63 -3 -95 l-26 -26
-142 7 c-135 7 -143 7 -169 -14 -15 -12 -37 -40 -48 -62 -19 -37 -139 -490
-139 -524 0 -10 23 5 61 39 33 31 97 73 142 96 69 34 93 41 155 43 39 2 72 1
72 -3 0 -3 11 -12 25 -19 13 -7 32 -29 41 -48 41 -86 -32 -219 -154 -281 -47
-24 -188 -61 -234 -61 -57 0 -65 -15 -16 -34 85 -34 162 -131 253 -318 l65
-135 57 9 c79 11 234 7 258 -8 38 -22 83 -24 142 -5 76 25 394 27 430 3 25
-16 110 -13 213 8 87 16 468 11 504 -7 35 -18 146 -19 226 -1 80 17 964 18
981 1 18 -18 107 -16 159 2 61 22 298 21 371 -1 66 -20 155 -21 235 -1 80 21
1030 22 1054 2 25 -21 91 -23 151 -4 44 14 87 17 210 15 85 -1 160 -5 168 -10
8 -5 48 -12 89 -16 58 -6 86 -4 116 7 31 12 103 17 302 20 231 5 265 3 297
-12 45 -21 106 -22 179 -2 81 22 520 24 551 2 27 -19 106 -19 174 -1 62 17
411 20 488 5 82 -17 199 -27 210 -19 26 19 104 23 420 25 280 1 352 4 408 18
38 9 79 17 93 17 36 0 42 -31 -77 410 -17 63 -48 180 -69 260 -36 137 -64 241
-95 355 -7 28 -27 102 -44 165 -16 63 -55 210 -87 325 -31 116 -60 225 -64
243 -5 19 -10 36 -13 38 -2 2 -62 -7 -133 -22 -71 -14 -163 -32 -204 -40 -41
-8 -97 -19 -125 -24 -27 -6 -88 -16 -135 -24 -47 -8 -139 -23 -205 -35 -66
-11 -167 -27 -225 -36 -58 -8 -127 -19 -155 -24 -156 -29 -616 -87 -960 -122
-320 -32 -391 -38 -550 -49 -82 -5 -206 -14 -275 -20 -291 -22 -732 -34 -1287
-35 l-591 0 -12 -37 c-6 -21 -20 -43 -31 -49 -13 -7 -74 -9 -169 -7 -145 3
-149 2 -174 -21 -33 -31 -54 -89 -101 -271 -94 -365 -102 -410 -59 -346 19 30
164 130 259 180 56 29 80 36 127 36 120 0 126 -57 33 -340 -32 -96 -66 -202
-77 -234 -29 -89 -35 -154 -14 -162 19 -7 107 46 136 84 11 13 20 21 20 17 0
-5 8 -1 19 9 21 19 48 12 56 -14 10 -31 -120 -140 -227 -190 -80 -38 -130 -39
-165 -4 -25 25 -25 29 -20 112 4 71 18 127 76 307 39 120 71 229 71 241 0 68
-139 15 -268 -101 -35 -32 -73 -76 -84 -99 -12 -22 -47 -135 -78 -251 l-55
-210 -79 -3 c-44 -2 -83 1 -87 5 -4 4 3 40 15 78 30 88 97 329 129 460 85 349
122 476 157 550 53 111 118 184 207 231 l72 39 -37 7 c-20 4 -81 7 -135 7
-130 1 -611 36 -917 67 -295 29 -800 89 -885 104 -33 6 -91 15 -130 20 -112
15 -449 67 -575 90 -104 18 -535 101 -603 116 -37 8 -72 12 -77 9 -5 -3 -11
-20 -15 -38 -4 -17 -15 -61 -25 -97 -23 -80 -113 -411 -146 -540 -14 -52 -33
-126 -44 -165 -10 -38 -30 -113 -44 -165 -14 -52 -57 -214 -96 -360 -39 -146
-80 -298 -91 -339 -14 -53 -17 -76 -9 -81 6 -4 64 -17 128 -29 128 -23 205
-26 449 -16 158 7 161 7 173 -14 6 -12 8 -27 4 -33 -4 -7 -3 -8 4 -4 12 7 16
-5 13 -31 -1 -7 2 -13 7 -13 15 0 112 -105 112 -122 0 -4 -7 -8 -15 -8 -55 0
-1013 185 -1027 198 -4 4 4 45 18 92 26 89 259 937 349 1270 80 297 166 604
172 613 3 5 15 6 27 3 11 -3 146 -31 299 -61z m-463 -9 c0 -19 -21 -25 -45
-13 -19 10 -19 10 0 18 31 12 45 10 45 -5z m8995 -5 c10 -17 -12 -21 -25 -6
-10 12 -10 15 3 15 9 0 18 -4 22 -9z m-4020 -271 c12 -5 -198 -9 -495 -9 -336
-1 -510 3 -500 9 19 12 967 12 995 0z m-3505 -300 c33 -17 42 -45 30 -89 -31
-116 -190 -123 -190 -8 0 54 51 107 105 107 20 0 45 -5 55 -10z m6305 -306
c-19 -55 -36 -116 -40 -135 l-6 -34 110 2 c70 2 111 -1 111 -8 0 -5 -7 -26
-15 -45 l-15 -36 -107 4 -108 3 -27 -85 c-83 -264 -119 -401 -116 -442 3 -40
5 -43 35 -46 39 -4 127 33 118 48 -4 6 -1 10 6 9 24 -4 71 20 63 33 -4 7 -3 8
4 4 11 -6 67 26 85 49 7 9 57 -40 57 -56 0 -7 -74 -57 -184 -124 -172 -104
-286 -137 -336 -97 -24 19 -25 26 -24 114 1 75 8 118 36 218 34 118 92 314
105 353 5 15 -3 17 -81 17 -83 0 -86 1 -86 23 1 61 4 63 102 62 l91 0 28 98
c15 54 32 104 37 109 16 16 176 75 183 69 4 -3 -8 -51 -26 -107z m-5778 93
c-13 -33 -66 -206 -71 -232 l-7 -31 110 3 c61 1 113 -2 116 -7 3 -5 -3 -24
-13 -42 l-19 -33 -109 -1 -109 -1 -32 -109 c-17 -60 -48 -165 -69 -234 -20
-69 -37 -147 -38 -175 -1 -50 -1 -50 32 -53 39 -4 174 59 246 113 l43 34 28
-29 c16 -17 27 -31 24 -33 -9 -8 -177 -115 -235 -150 -80 -48 -184 -87 -234
-87 -101 0 -114 100 -45 340 18 63 43 156 56 205 12 50 28 102 35 117 27 54
22 58 -72 58 l-86 0 7 37 c4 21 9 41 11 44 2 4 43 6 90 5 l87 -2 13 32 c7 17
21 62 30 100 20 83 26 92 70 100 19 3 34 10 34 15 0 4 19 12 43 17 60 14 70
14 64 -1z m5093 5 c0 -4 -4 -12 -9 -17 -10 -11 -56 -152 -70 -214 l-8 -36 108
2 c59 2 110 -1 113 -6 3 -5 -1 -26 -10 -46 l-15 -37 -109 4 c-109 3 -110 3
-119 -22 -5 -14 -37 -123 -71 -242 -42 -150 -60 -230 -58 -260 3 -40 5 -43 35
-46 22 -2 53 7 95 29 74 38 170 99 181 114 9 12 57 -43 51 -59 -7 -16 -196
-134 -295 -184 -58 -29 -105 -45 -142 -49 -51 -5 -58 -3 -82 22 -27 26 -28 29
-22 118 5 87 24 168 116 484 12 40 21 77 21 83 0 6 -32 10 -79 10 -44 0 -82 3
-85 8 -2 4 -1 23 3 42 l7 35 94 1 94 0 26 100 c26 105 29 108 100 137 88 36
130 45 130 29z m-5313 -94 c-3 -8 -6 -5 -6 6 -1 11 2 17 5 13 3 -3 4 -12 1
-19z m-424 -120 c26 -14 19 -66 -28 -208 -63 -191 -132 -422 -139 -468 -5 -34
-3 -44 10 -49 20 -7 49 8 125 70 64 52 78 54 103 13 12 -19 14 -18 -114 -114
-124 -93 -230 -125 -281 -83 -20 16 -24 28 -23 68 1 82 33 209 106 426 73 221
76 243 22 218 -15 -6 -52 -32 -83 -56 -64 -50 -80 -54 -105 -26 -17 19 -17 20
3 37 11 10 17 22 14 27 -4 6 -1 7 6 3 8 -5 24 4 42 25 16 18 29 29 29 25 0 -4
9 1 19 11 29 27 120 72 176 87 50 14 83 12 118 -6z m3828 -93 c-10 -38 -21
-88 -25 -110 l-7 -40 38 39 c20 21 62 54 93 73 30 20 57 39 60 43 3 4 40 26
83 49 66 35 87 41 137 41 125 0 130 -54 34 -340 -144 -432 -141 -460 40 -327
54 40 72 48 85 40 32 -20 21 -40 -56 -102 -153 -122 -266 -159 -320 -105 -25
25 -25 29 -20 107 3 45 12 102 20 127 8 25 29 92 47 150 17 58 35 113 40 122
6 10 19 50 30 90 19 69 19 74 3 86 -11 8 -29 10 -48 6 -84 -18 -243 -140 -288
-221 -15 -28 -50 -138 -78 -244 -28 -106 -55 -201 -59 -210 -7 -13 -27 -17
-90 -18 -44 -1 -80 1 -80 5 0 4 16 61 36 127 19 66 48 172 64 236 15 64 40
159 54 211 31 113 32 130 8 130 -21 0 -105 -51 -144 -88 -25 -23 -30 -24 -53
-12 -28 15 -29 19 -12 40 29 35 208 160 229 160 8 0 19 5 25 11 7 7 40 15 75
19 50 5 67 3 80 -9 16 -15 16 -20 -1 -86z m3496 77 c63 -35 70 -144 15 -224
-17 -25 -54 -62 -81 -82 -55 -41 -190 -109 -296 -151 -99 -39 -98 -36 -93
-128 3 -69 6 -80 28 -97 42 -33 103 -26 196 21 45 22 91 49 102 59 11 10 23
16 26 13 3 -4 6 -2 6 4 0 16 50 26 66 12 29 -24 14 -48 -68 -108 -248 -180
-459 -213 -525 -81 -43 84 -25 270 38 400 16 33 29 63 29 66 0 16 124 174 163
209 54 48 76 62 131 82 80 31 212 33 263 5z m-5776 0 c46 -31 56 -46 52 -79
-12 -79 -74 -92 -196 -43 -87 35 -107 36 -162 11 -52 -23 -90 -69 -126 -149
-41 -92 -58 -156 -66 -249 -5 -76 -4 -86 21 -137 24 -48 33 -57 68 -68 30 -9
53 -9 91 -1 65 14 159 58 196 92 39 36 59 37 71 6 6 -15 10 -32 10 -38 0 -16
-160 -111 -239 -142 -130 -51 -264 -59 -319 -19 -83 61 -101 213 -44 385 18
53 43 113 57 133 14 20 25 40 25 45 0 4 8 17 18 29 9 11 25 30 35 42 10 11 15
26 11 32 -4 6 -3 8 3 5 12 -8 109 80 105 94 -1 6 2 8 7 5 5 -4 34 7 64 23 66
36 77 38 197 40 75 1 100 -3 121 -17z m1725 2 c48 -23 67 -64 62 -129 -9 -109
-115 -202 -333 -294 -188 -80 -170 -64 -170 -160 0 -76 2 -84 25 -103 20 -16
36 -19 80 -16 54 4 66 9 266 123 35 20 35 20 50 1 8 -11 14 -25 14 -32 0 -36
-275 -202 -370 -223 -174 -40 -260 23 -260 189 1 199 86 388 245 543 22 22 39
43 38 48 -2 4 3 6 11 3 7 -3 20 1 27 8 8 8 37 24 64 36 64 27 199 31 251 6z
m1845 -22 c24 -27 29 -41 29 -85 0 -29 -9 -70 -19 -93 -37 -82 -166 -168 -381
-253 -47 -19 -91 -41 -98 -50 -10 -11 -12 -37 -9 -89 5 -93 26 -116 102 -109
62 6 70 8 122 35 76 40 133 79 125 87 -4 5 -2 5 5 1 7 -4 21 -1 32 6 18 11 23
9 43 -11 l22 -24 -40 -34 c-68 -60 -178 -129 -260 -163 -68 -29 -91 -34 -164
-34 -70 -1 -90 3 -112 19 -48 35 -62 79 -62 190 1 129 40 253 117 373 78 120
203 242 249 242 8 0 18 4 24 9 16 16 47 20 147 18 98 -2 99 -2 128 -35z"/>
<path d="M1097 15430 c3 -11 0 -20 -6 -20 -7 0 -11 -30 -10 -92 l2 -93 7 75
c4 41 11 92 15 113 5 23 3 37 -3 37 -6 0 -8 -9 -5 -20z"/>
<path d="M4811 15433 c1 -10 5 -31 9 -48 7 -27 8 -25 9 18 0 26 -3 47 -9 47
-5 0 -9 -8 -9 -17z"/>
<path d="M3513 15395 c0 -27 2 -38 4 -22 2 15 2 37 0 50 -2 12 -4 0 -4 -28z"/>
<path d="M862 15410 c0 -14 2 -19 5 -12 2 6 2 18 0 25 -3 6 -5 1 -5 -13z"/>
<path d="M1183 15345 c0 -38 2 -53 4 -32 2 20 2 52 0 70 -2 17 -4 1 -4 -38z"/>
<path d="M1213 15375 c0 -22 2 -30 4 -17 2 12 2 30 0 40 -3 9 -5 -1 -4 -23z"/>
<path d="M1291 15394 c0 -11 3 -14 6 -6 3 7 2 16 -1 19 -3 4 -6 -2 -5 -13z"/>
<path d="M2652 15390 c0 -14 2 -19 5 -12 2 6 2 18 0 25 -3 6 -5 1 -5 -13z"/>
<path d="M3272 15345 c-1 -56 1 -66 10 -48 7 15 7 37 0 70 l-10 48 0 -70z"/>
<path d="M5601 15394 c0 -11 3 -14 6 -6 3 7 2 16 -1 19 -3 4 -6 -2 -5 -13z"/>
<path d="M2813 15320 c0 -47 2 -66 4 -42 2 23 2 61 0 85 -2 23 -4 4 -4 -43z"/>
<path d="M4592 15380 c0 -14 2 -19 5 -12 2 6 2 18 0 25 -3 6 -5 1 -5 -13z"/>
<path d="M5274 15300 c0 -58 1 -81 3 -52 2 28 2 76 0 105 -2 28 -3 5 -3 -53z"/>
<path d="M5360 15356 c0 -25 5 -48 10 -51 6 -4 10 13 10 44 0 28 -4 51 -10 51
-5 0 -10 -20 -10 -44z"/>
<path d="M7463 15350 c0 -30 2 -43 4 -27 2 15 2 39 0 55 -2 15 -4 2 -4 -28z"/>
<path d="M2490 15360 c0 -18 4 -29 10 -25 6 3 10 15 10 25 0 10 -4 22 -10 25
-6 4 -10 -7 -10 -25z"/>
<path d="M932 15355 c0 -16 2 -22 5 -12 2 9 2 23 0 30 -3 6 -5 -1 -5 -18z"/>
<path d="M723 15320 c0 -30 2 -43 4 -27 2 15 2 39 0 55 -2 15 -4 2 -4 -28z"/>
<path d="M3958 15364 c-5 -4 -8 -25 -8 -48 0 -28 3 -37 11 -29 6 6 9 27 7 48
-2 20 -6 33 -10 29z"/>
<path d="M1772 15335 c0 -16 2 -22 5 -12 2 9 2 23 0 30 -3 6 -5 -1 -5 -18z"/>
<path d="M1863 15320 c0 -25 2 -35 4 -22 2 12 2 32 0 45 -2 12 -4 2 -4 -23z"/>
<path d="M2192 15340 c0 -14 2 -19 5 -12 2 6 2 18 0 25 -3 6 -5 1 -5 -13z"/>
<path d="M2672 15330 c0 -19 2 -27 5 -17 2 9 2 25 0 35 -3 9 -5 1 -5 -18z"/>
<path d="M3021 15344 c0 -11 3 -14 6 -6 3 7 2 16 -1 19 -3 4 -6 -2 -5 -13z"/>
<path d="M3861 15344 c0 -11 3 -14 6 -6 3 7 2 16 -1 19 -3 4 -6 -2 -5 -13z"/>
<path d="M6052 15335 c0 -16 2 -22 5 -12 2 9 2 23 0 30 -3 6 -5 -1 -5 -18z"/>
<path d="M7003 15320 c0 -25 2 -35 4 -22 2 12 2 32 0 45 -2 12 -4 2 -4 -23z"/>
<path d="M1342 15320 c0 -19 2 -27 5 -17 2 9 2 25 0 35 -3 9 -5 1 -5 -18z"/>
<path d="M2151 15334 c0 -11 3 -14 6 -6 3 7 2 16 -1 19 -3 4 -6 -2 -5 -13z"/>
<path d="M2467 15344 c-3 -4 -4 -17 -1 -28 3 -12 9 -69 13 -126 l8 -105 1 115
c1 111 -6 159 -21 144z"/>
<path d="M8142 15330 c0 -14 2 -19 5 -12 2 6 2 18 0 25 -3 6 -5 1 -5 -13z"/>
<path d="M1732 15320 c0 -14 2 -19 5 -12 2 6 2 18 0 25 -3 6 -5 1 -5 -13z"/>
<path d="M2316 15314 c-8 -22 -8 -239 1 -230 6 5 12 246 7 246 -1 0 -5 -7 -8
-16z"/>
<path d="M2233 15270 c0 -30 2 -43 4 -27 2 15 2 39 0 55 -2 15 -4 2 -4 -28z"/>
<path d="M4574 15205 c0 -66 1 -92 3 -57 2 34 2 88 0 120 -2 31 -3 3 -3 -63z"/>
<path d="M4322 15280 c0 -19 2 -27 5 -17 2 9 2 25 0 35 -3 9 -5 1 -5 -18z"/>
<path d="M4411 15294 c0 -11 3 -14 6 -6 3 7 2 16 -1 19 -3 4 -6 -2 -5 -13z"/>
<path d="M5222 15280 c0 -19 2 -27 5 -17 2 9 2 25 0 35 -3 9 -5 1 -5 -18z"/>
<path d="M6131 15294 c0 -11 3 -14 6 -6 3 7 2 16 -1 19 -3 4 -6 -2 -5 -13z"/>
<path d="M1032 15275 c0 -16 2 -22 5 -12 2 9 2 23 0 30 -3 6 -5 -1 -5 -18z"/>
<path d="M1942 15270 c0 -19 2 -27 5 -17 2 9 2 25 0 35 -3 9 -5 1 -5 -18z"/>
<path d="M2373 15255 c0 -27 2 -38 4 -22 2 15 2 37 0 50 -2 12 -4 0 -4 -28z"/>
<path d="M6661 15284 c0 -11 3 -14 6 -6 3 7 2 16 -1 19 -3 4 -6 -2 -5 -13z"/>
<path d="M1541 15231 c-1 -49 2 -62 10 -54 9 9 9 26 2 65 l-10 53 -2 -64z"/>
<path d="M3465 15229 c-5 -33 -3 -55 4 -62 8 -8 11 6 11 51 0 34 -2 62 -4 62
-2 0 -7 -23 -11 -51z"/>
<path d="M2182 15245 c0 -16 2 -22 5 -12 2 9 2 23 0 30 -3 6 -5 -1 -5 -18z"/>
<path d="M1378 15247 c-12 -30 -10 -93 3 -80 5 5 9 30 7 54 -2 31 -5 39 -10
26z"/>
<path d="M1671 15228 c0 -13 4 -32 9 -43 7 -15 9 -10 9 23 1 23 -3 42 -9 42
-5 0 -10 -10 -9 -22z"/>
<path d="M2341 15183 c1 -67 2 -67 10 -23 11 63 11 90 -1 90 -6 0 -9 -28 -9
-67z"/>
<path d="M4437 15221 c-4 -18 -7 -50 -6 -70 l1 -36 9 40 c6 22 9 54 7 70 l-3
30 -8 -34z"/>
<path d="M5563 15200 c0 -30 2 -43 4 -27 2 15 2 39 0 55 -2 15 -4 2 -4 -28z"/>
<path d="M5733 15215 c0 -22 2 -30 4 -17 2 12 2 30 0 40 -3 9 -5 -1 -4 -23z"/>
<path d="M2042 15215 c0 -16 2 -22 5 -12 2 9 2 23 0 30 -3 6 -5 -1 -5 -18z"/>
<path d="M3642 15210 c0 -19 2 -27 5 -17 2 9 2 25 0 35 -3 9 -5 1 -5 -18z"/>
<path d="M4132 15220 c0 -14 2 -19 5 -12 2 6 2 18 0 25 -3 6 -5 1 -5 -13z"/>
<path d="M6533 15205 c0 -22 2 -30 4 -17 2 12 2 30 0 40 -3 9 -5 -1 -4 -23z"/>
<path d="M7653 15195 c0 -27 2 -38 4 -22 2 15 2 37 0 50 -2 12 -4 0 -4 -28z"/>
<path d="M2841 15214 c0 -11 3 -14 6 -6 3 7 2 16 -1 19 -3 4 -6 -2 -5 -13z"/>
<path d="M3772 15205 c0 -16 2 -22 5 -12 2 9 2 23 0 30 -3 6 -5 -1 -5 -18z"/>
<path d="M5860 15215 c0 -8 5 -15 10 -15 6 0 10 7 10 15 0 8 -4 15 -10 15 -5
0 -10 -7 -10 -15z"/>
<path d="M1902 15185 c0 -22 4 -53 8 -70 7 -27 8 -25 8 15 0 25 -4 56 -8 70
-7 21 -8 19 -8 -15z"/>
<path d="M4003 15170 c0 -30 2 -43 4 -27 2 15 2 39 0 55 -2 15 -4 2 -4 -28z"/>
<path d="M6091 15173 c0 -28 2 -54 7 -57 4 -2 6 14 4 37 -5 68 -10 76 -11 20z"/>
<path d="M8622 15185 c0 -16 2 -22 5 -12 2 9 2 23 0 30 -3 6 -5 -1 -5 -18z"/>
<path d="M971 15184 c0 -11 3 -14 6 -6 3 7 2 16 -1 19 -3 4 -6 -2 -5 -13z"/>
<path d="M1463 15145 c0 -33 2 -45 4 -27 2 18 2 45 0 60 -2 15 -4 0 -4 -33z"/>
<path d="M1993 15070 c-1 -115 1 -127 9 -79 5 34 5 88 0 135 -9 77 -9 76 -9
-56z"/>
<path d="M2160 15163 c0 -21 5 -45 10 -53 7 -11 10 0 10 38 0 28 -4 52 -10 52
-5 0 -10 -17 -10 -37z"/>
<path d="M3072 15175 c0 -16 2 -22 5 -12 2 9 2 23 0 30 -3 6 -5 -1 -5 -18z"/>
<path d="M4401 15153 c-1 -28 4 -55 9 -58 12 -8 12 61 0 90 -6 15 -9 6 -9 -32z"/>
<path d="M5162 15175 c0 -16 2 -22 5 -12 2 9 2 23 0 30 -3 6 -5 -1 -5 -18z"/>
<path d="M6353 15150 c0 -30 2 -43 4 -27 2 15 2 39 0 55 -2 15 -4 2 -4 -28z"/>
<path d="M1769 15173 c-4 -42 -3 -63 3 -63 4 0 8 16 8 35 0 19 -2 35 -5 35 -3
0 -5 -3 -6 -7z"/>
<path d="M4081 15164 c0 -11 3 -14 6 -6 3 7 2 16 -1 19 -3 4 -6 -2 -5 -13z"/>
<path d="M4262 15150 c0 -19 2 -27 5 -17 2 9 2 25 0 35 -3 9 -5 1 -5 -18z"/>
<path d="M4827 15131 c-4 -29 -6 -56 -2 -59 11 -12 16 8 13 59 l-3 54 -8 -54z"/>
<path d="M8052 15150 c0 -19 2 -27 5 -17 2 9 2 25 0 35 -3 9 -5 1 -5 -18z"/>
<path d="M3863 15135 c0 -22 2 -30 4 -17 2 12 2 30 0 40 -3 9 -5 -1 -4 -23z"/>
<path d="M5952 15145 c0 -16 2 -22 5 -12 2 9 2 23 0 30 -3 6 -5 -1 -5 -18z"/>
<path d="M6502 15145 c0 -16 2 -22 5 -12 2 9 2 23 0 30 -3 6 -5 -1 -5 -18z"/>
<path d="M8440 15158 c0 -7 5 -20 10 -28 8 -12 10 -11 10 7 0 12 -4 25 -10 28
-5 3 -10 0 -10 -7z"/>
<path d="M8592 15145 c0 -16 2 -22 5 -12 2 9 2 23 0 30 -3 6 -5 -1 -5 -18z"/>
<path d="M1803 15110 c0 -30 2 -43 4 -27 2 15 2 39 0 55 -2 15 -4 2 -4 -28z"/>
<path d="M2738 15147 c-5 -10 -8 -35 -8 -55 1 -30 2 -34 11 -19 6 9 9 34 7 55
-2 28 -5 32 -10 19z"/>
<path d="M647 15143 c-4 -3 -7 -25 -6 -47 l1 -41 9 44 c9 45 8 56 -4 44z"/>
<path d="M1241 15134 c0 -11 3 -14 6 -6 3 7 2 16 -1 19 -3 4 -6 -2 -5 -13z"/>
<path d="M5262 15115 c0 -22 4 -51 8 -65 7 -21 8 -17 8 20 0 25 -3 54 -8 65
-7 15 -9 11 -8 -20z"/>
<path d="M8083 15110 c0 -25 2 -35 4 -22 2 12 2 32 0 45 -2 12 -4 2 -4 -23z"/>
<path d="M1063 15125 c-7 -8 -13 -38 -12 -67 l1 -53 13 35 c12 34 13 34 19 10
3 -14 7 -41 9 -60 3 -23 4 -17 5 20 2 61 -7 130 -17 130 -3 -1 -12 -7 -18 -15z"/>
<path d="M2197 15127 c-11 -29 -9 -53 4 -40 6 6 9 21 7 34 -3 21 -4 22 -11 6z"/>
<path d="M2622 15020 c0 -98 2 -115 9 -81 5 25 5 80 0 125 l-8 81 -1 -125z"/>
<path d="M3156 15125 c-3 -9 -5 -38 -5 -63 1 -41 2 -43 8 -17 l7 30 9 -25 c7
-22 9 -20 12 19 3 29 0 49 -10 58 -12 13 -15 12 -21 -2z"/>
<path d="M3893 15100 c0 -25 2 -35 4 -22 2 12 2 32 0 45 -2 12 -4 2 -4 -23z"/>
<path d="M5992 15120 c0 -14 2 -19 5 -12 2 6 2 18 0 25 -3 6 -5 1 -5 -13z"/>
<path d="M2565 15096 c-10 -24 -14 -49 -10 -65 7 -24 8 -24 15 -6 l7 20 5 -20
c3 -15 7 -10 12 17 5 21 4 49 -2 65 l-10 28 -17 -39z"/>
<path d="M3937 15101 c-4 -18 -6 -52 -6 -75 1 -37 2 -35 10 19 10 67 7 109 -4
56z"/>
<path d="M932 15095 c0 -16 2 -22 5 -12 2 9 2 23 0 30 -3 6 -5 -1 -5 -18z"/>
<path d="M1350 15078 c0 -49 5 -47 13 5 3 20 2 37 -4 37 -5 0 -9 -19 -9 -42z"/>
<path d="M1841 15058 c1 -72 5 -68 12 10 2 28 0 52 -4 52 -5 0 -9 -28 -8 -62z"/>
<path d="M2101 15081 c-1 -34 2 -42 11 -33 8 8 8 20 1 44 l-11 33 -1 -44z"/>
<path d="M3022 15095 c0 -16 2 -22 5 -12 2 9 2 23 0 30 -3 6 -5 -1 -5 -18z"/>
<path d="M3446 15105 c-3 -9 -6 -26 -5 -38 1 -16 4 -12 10 12 10 34 6 55 -5
26z"/>
<path d="M3503 15080 c0 -25 2 -35 4 -22 2 12 2 32 0 45 -2 12 -4 2 -4 -23z"/>
<path d="M4203 15085 c0 -22 2 -30 4 -17 2 12 2 30 0 40 -3 9 -5 -1 -4 -23z"/>
<path d="M4852 15060 c0 -52 1 -60 9 -39 6 16 6 40 0 65 -9 37 -9 36 -9 -26z"/>
<path d="M5243 15070 c0 -30 2 -43 4 -27 2 15 2 39 0 55 -2 15 -4 2 -4 -28z"/>
<path d="M5542 15090 c0 -19 2 -27 5 -17 2 9 2 25 0 35 -3 9 -5 1 -5 -18z"/>
<path d="M5651 15104 c0 -11 3 -14 6 -6 3 7 2 16 -1 19 -3 4 -6 -2 -5 -13z"/>
<path d="M6032 15095 c0 -16 2 -22 5 -12 2 9 2 23 0 30 -3 6 -5 -1 -5 -18z"/>
<path d="M6183 15070 c0 -30 2 -43 4 -27 2 15 2 39 0 55 -2 15 -4 2 -4 -28z"/>
<path d="M6293 15085 c0 -22 2 -30 4 -17 2 12 2 30 0 40 -3 9 -5 -1 -4 -23z"/>
<path d="M6922 15100 c0 -14 2 -19 5 -12 2 6 2 18 0 25 -3 6 -5 1 -5 -13z"/>
<path d="M8122 15090 c0 -19 2 -27 5 -17 2 9 2 25 0 35 -3 9 -5 1 -5 -18z"/>
<path d="M661 15073 c0 -21 4 -47 9 -58 6 -15 9 -6 9 32 1 28 -3 55 -9 58 -6
4 -10 -9 -9 -32z"/>
<path d="M1406 15093 c-4 -9 -2 -21 4 -27 7 -7 10 -2 10 17 0 31 -5 34 -14 10z"/>
<path d="M2763 15055 c0 -33 2 -45 4 -27 2 18 2 45 0 60 -2 15 -4 0 -4 -33z"/>
<path d="M4081 15078 c0 -18 4 -42 9 -53 6 -15 9 -8 9 27 1 26 -3 50 -9 53 -6
4 -10 -7 -9 -27z"/>
<path d="M4655 15078 c-8 -44 0 -75 11 -40 5 18 9 20 15 10 6 -9 9 -8 9 8 0
11 -6 29 -14 39 -13 19 -15 18 -21 -17z"/>
<path d="M7212 15090 c0 -14 2 -19 5 -12 2 6 2 18 0 25 -3 6 -5 1 -5 -13z"/>
<path d="M8270 15076 c0 -19 3 -37 8 -40 4 -2 6 13 4 35 -5 48 -12 51 -12 5z"/>
<path d="M1133 15045 c0 -33 2 -45 4 -27 2 18 2 45 0 60 -2 15 -4 0 -4 -33z"/>
<path d="M2816 15083 c-4 -13 -12 -23 -17 -23 -5 0 -8 -26 -7 -57 1 -53 2 -54
5 -14 3 25 11 50 20 56 8 6 13 21 11 36 l-4 24 -8 -22z"/>
<path d="M5592 15075 c0 -16 2 -22 5 -12 2 9 2 23 0 30 -3 6 -5 -1 -5 -18z"/>
<path d="M5903 14940 c0 -150 1 -156 6 -60 4 58 4 132 0 165 -4 37 -6 -2 -6
-105z"/>
<path d="M6748 15075 c-6 -30 -3 -43 8 -33 3 4 4 19 2 35 l-3 28 -7 -30z"/>
<path d="M6813 15030 c0 -41 2 -58 4 -37 2 20 2 54 0 75 -2 20 -4 3 -4 -38z"/>
<path d="M7362 15080 c0 -14 2 -19 5 -12 2 6 2 18 0 25 -3 6 -5 1 -5 -13z"/>
<path d="M2393 15055 c0 -22 2 -30 4 -17 2 12 2 30 0 40 -3 9 -5 -1 -4 -23z"/>
<path d="M3222 15070 c0 -14 2 -19 5 -12 2 6 2 18 0 25 -3 6 -5 1 -5 -13z"/>
<path d="M4710 15028 c0 -37 5 -70 10 -73 13 -8 13 105 0 125 -7 11 -10 -5
-10 -52z"/>
<path d="M5121 15074 c0 -11 3 -14 6 -6 3 7 2 16 -1 19 -3 4 -6 -2 -5 -13z"/>
<path d="M6773 15055 c0 -22 2 -30 4 -17 2 12 2 30 0 40 -3 9 -5 -1 -4 -23z"/>
<path d="M1712 14998 c0 -49 4 -88 9 -88 11 0 10 115 -1 150 -5 16 -7 -7 -8
-62z"/>
<path d="M2030 15036 c0 -25 -4 -48 -10 -51 -11 -7 -9 -75 1 -75 9 0 18 39 26
110 4 42 2 60 -6 60 -6 0 -11 -18 -11 -44z"/>
<path d="M6572 15060 c0 -14 2 -19 5 -12 2 6 2 18 0 25 -3 6 -5 1 -5 -13z"/>
<path d="M6952 15060 c0 -14 2 -19 5 -12 2 6 2 18 0 25 -3 6 -5 1 -5 -13z"/>
<path d="M1261 15054 c0 -11 3 -14 6 -6 3 7 2 16 -1 19 -3 4 -6 -2 -5 -13z"/>
<path d="M4130 15050 c0 -12 -5 -40 -12 -62 -8 -27 -8 -42 -1 -49 7 -7 13 10
18 56 4 37 4 69 1 72 -3 4 -6 -4 -6 -17z"/>
<path d="M4481 15054 c0 -11 3 -14 6 -6 3 7 2 16 -1 19 -3 4 -6 -2 -5 -13z"/>
<path d="M8901 15054 c0 -11 3 -14 6 -6 3 7 2 16 -1 19 -3 4 -6 -2 -5 -13z"/>
<path d="M1173 15010 c0 -30 2 -43 4 -27 2 15 2 39 0 55 -2 15 -4 2 -4 -28z"/>
<path d="M2873 15025 c0 -22 2 -30 4 -17 2 12 2 30 0 40 -3 9 -5 -1 -4 -23z"/>
<path d="M3263 15010 c0 -30 2 -43 4 -27 2 15 2 39 0 55 -2 15 -4 2 -4 -28z"/>
<path d="M5355 15017 c-4 -26 -5 -50 -2 -53 8 -8 20 60 15 83 -3 10 -8 -4 -13
-30z"/>
<path d="M6222 15035 c0 -16 2 -22 5 -12 2 9 2 23 0 30 -3 6 -5 -1 -5 -18z"/>
<path d="M697 15023 c-3 -15 -1 -36 3 -47 7 -16 9 -9 9 27 1 52 -4 61 -12 20z"/>
<path d="M1532 15025 c0 -16 2 -22 5 -12 2 9 2 23 0 30 -3 6 -5 -1 -5 -18z"/>
<path d="M1669 15030 c-6 -38 2 -110 12 -110 11 0 10 74 0 110 l-8 25 -4 -25z"/>
<path d="M2277 15018 c-2 -18 -1 -42 4 -53 5 -14 8 -4 8 33 1 59 -4 68 -12 20z"/>
<path d="M4373 14995 c0 -33 2 -45 4 -27 2 18 2 45 0 60 -2 15 -4 0 -4 -33z"/>
<path d="M6978 15044 c-5 -4 -8 -25 -8 -48 0 -28 3 -37 11 -29 6 6 9 27 7 48
-2 20 -6 33 -10 29z"/>
<path d="M7453 15005 c0 -27 2 -38 4 -22 2 15 2 37 0 50 -2 12 -4 0 -4 -28z"/>
<path d="M800 15004 c0 -21 5 -46 11 -54 7 -11 8 -1 3 35 -8 62 -14 70 -14 19z"/>
<path d="M2891 15005 c1 -22 4 -51 8 -65 l7 -25 6 28 c3 15 -1 44 -8 65 l-13
37 0 -40z"/>
<path d="M3808 14958 c-3 -46 -2 -103 1 -128 5 -31 8 -5 9 83 1 70 0 127 -2
127 -2 0 -5 -37 -8 -82z"/>
<path d="M4880 14993 c0 -25 2 -44 4 -42 8 10 13 89 5 89 -5 0 -9 -21 -9 -47z"/>
<path d="M8121 15024 c0 -11 3 -14 6 -6 3 7 2 16 -1 19 -3 4 -6 -2 -5 -13z"/>
<path d="M8311 15024 c0 -11 3 -14 6 -6 3 7 2 16 -1 19 -3 4 -6 -2 -5 -13z"/>
<path d="M8563 15000 c0 -25 2 -35 4 -22 2 12 2 32 0 45 -2 12 -4 2 -4 -23z"/>
<path d="M3761 15005 c1 -16 5 -43 9 -60 7 -27 8 -26 9 15 0 25 -4 52 -9 60
-7 11 -9 8 -9 -15z"/>
<path d="M6463 14995 c0 -22 2 -30 4 -17 2 12 2 30 0 40 -3 9 -5 -1 -4 -23z"/>
<path d="M8902 15010 c0 -14 2 -19 5 -12 2 6 2 18 0 25 -3 6 -5 1 -5 -13z"/>
<path d="M11162 15000 c0 -19 2 -27 5 -17 2 9 2 25 0 35 -3 9 -5 1 -5 -18z"/>
<path d="M3222 14990 c0 -19 2 -27 5 -17 2 9 2 25 0 35 -3 9 -5 1 -5 -18z"/>
<path d="M5422 14950 l0 -75 8 54 c5 30 4 64 0 75 -6 14 -9 -4 -8 -54z"/>
<path d="M5863 14975 c0 -27 2 -38 4 -22 2 15 2 37 0 50 -2 12 -4 0 -4 -28z"/>
<path d="M9071 15004 c0 -11 3 -14 6 -6 3 7 2 16 -1 19 -3 4 -6 -2 -5 -13z"/>
<path d="M1238 15004 c-5 -4 -8 -32 -8 -63 0 -39 3 -52 11 -44 5 5 9 34 7 62
-2 29 -6 49 -10 45z"/>
<path d="M3333 14945 c0 -38 2 -53 4 -32 2 20 2 52 0 70 -2 17 -4 1 -4 -38z"/>
<path d="M8002 14985 c0 -16 2 -22 5 -12 2 9 2 23 0 30 -3 6 -5 -1 -5 -18z"/>
<path d="M2513 14955 c0 -27 2 -38 4 -22 2 15 2 37 0 50 -2 12 -4 0 -4 -28z"/>
<path d="M3483 14940 c0 -36 2 -50 4 -32 2 17 2 47 0 65 -2 17 -4 3 -4 -33z"/>
<path d="M4603 14955 c0 -27 2 -38 4 -22 2 15 2 37 0 50 -2 12 -4 0 -4 -28z"/>
<path d="M4982 14980 c0 -14 2 -19 5 -12 2 6 2 18 0 25 -3 6 -5 1 -5 -13z"/>
<path d="M7950 14984 c0 -10 5 -26 10 -34 8 -11 9 -7 4 15 -8 37 -14 45 -14
19z"/>
<path d="M843 14945 c0 -27 2 -38 4 -22 2 15 2 37 0 50 -2 12 -4 0 -4 -28z"/>
<path d="M1328 14953 c-3 -21 -1 -51 3 -68 5 -22 7 -13 8 38 1 74 -4 88 -11
30z"/>
<path d="M1393 14945 c0 -27 2 -38 4 -22 2 15 2 37 0 50 -2 12 -4 0 -4 -28z"/>
<path d="M1472 14960 c0 -19 2 -27 5 -17 2 9 2 25 0 35 -3 9 -5 1 -5 -18z"/>
<path d="M2423 14920 c0 -41 2 -63 4 -47 2 15 9 27 14 27 5 0 9 7 9 16 0 8 -4
13 -9 9 -6 -3 -12 12 -14 32 -2 21 -4 4 -4 -37z"/>
<path d="M5002 14970 c0 -14 2 -19 5 -12 2 6 2 18 0 25 -3 6 -5 1 -5 -13z"/>
<path d="M5033 14940 c0 -30 2 -43 4 -27 2 15 2 39 0 55 -2 15 -4 2 -4 -28z"/>
<path d="M6208 14970 c-7 -24 -3 -38 8 -28 3 4 4 17 2 30 l-3 23 -7 -25z"/>
<path d="M1543 14930 c0 -30 2 -43 4 -27 2 15 2 39 0 55 -2 15 -4 2 -4 -28z"/>
<path d="M2340 14938 c0 -26 5 -50 10 -53 13 -8 13 65 0 85 -7 11 -10 2 -10
-32z"/>
<path d="M2483 14945 c0 -22 2 -30 4 -17 2 12 2 30 0 40 -3 9 -5 -1 -4 -23z"/>
<path d="M3423 14930 c0 -30 2 -43 4 -27 2 15 2 39 0 55 -2 15 -4 2 -4 -28z"/>
<path d="M5513 14930 c0 -30 2 -43 4 -27 2 15 2 39 0 55 -2 15 -4 2 -4 -28z"/>
<path d="M5661 14964 c0 -11 3 -14 6 -6 3 7 2 16 -1 19 -3 4 -6 -2 -5 -13z"/>
<path d="M8301 14964 c0 -11 3 -14 6 -6 3 7 2 16 -1 19 -3 4 -6 -2 -5 -13z"/>
<path d="M632 14880 c0 -67 2 -79 9 -58 7 17 7 47 1 85 l-10 58 0 -85z"/>
<path d="M672 14940 c0 -14 2 -19 5 -12 2 6 2 18 0 25 -3 6 -5 1 -5 -13z"/>
<path d="M2721 14944 c0 -11 3 -14 6 -6 3 7 2 16 -1 19 -3 4 -6 -2 -5 -13z"/>
<path d="M2761 14944 c0 -11 3 -14 6 -6 3 7 2 16 -1 19 -3 4 -6 -2 -5 -13z"/>
<path d="M4431 14943 c0 -10 4 -27 9 -38 7 -17 9 -15 9 12 1 17 -3 35 -9 38
-5 3 -10 -2 -9 -12z"/>
<path d="M4572 14935 c0 -16 2 -22 5 -12 2 9 2 23 0 30 -3 6 -5 -1 -5 -18z"/>
<path d="M4851 14944 c0 -11 3 -14 6 -6 3 7 2 16 -1 19 -3 4 -6 -2 -5 -13z"/>
<path d="M5572 14935 c0 -16 2 -22 5 -12 2 9 2 23 0 30 -3 6 -5 -1 -5 -18z"/>
<path d="M2207 14918 c8 -44 13 -48 13 -10 0 17 -4 34 -10 37 -6 4 -7 -6 -3
-27z"/>
<path d="M6613 14910 c0 -25 2 -35 4 -22 2 12 2 32 0 45 -2 12 -4 2 -4 -23z"/>
<path d="M1112 14910 c0 -19 2 -27 5 -17 2 9 2 25 0 35 -3 9 -5 1 -5 -18z"/>
<path d="M2942 14910 c0 -19 2 -27 5 -17 2 9 2 25 0 35 -3 9 -5 1 -5 -18z"/>
<path d="M4510 14911 c0 -17 5 -31 10 -31 6 0 10 11 10 24 0 14 -4 28 -10 31
-6 4 -10 -7 -10 -24z"/>
<path d="M5732 14910 c0 -19 2 -27 5 -17 2 9 2 25 0 35 -3 9 -5 1 -5 -18z"/>
<path d="M6531 14924 c0 -11 3 -14 6 -6 3 7 2 16 -1 19 -3 4 -6 -2 -5 -13z"/>
<path d="M1985 14920 c-3 -5 -1 -10 4 -10 6 0 11 5 11 10 0 6 -2 10 -4 10 -3
0 -8 -4 -11 -10z"/>
<path d="M2850 14878 c0 -29 5 -60 10 -68 7 -11 10 3 10 47 0 34 -4 65 -10 68
-6 4 -10 -14 -10 -47z"/>
<path d="M5301 14914 c0 -11 3 -14 6 -6 3 7 2 16 -1 19 -3 4 -6 -2 -5 -13z"/>
<path d="M1463 14870 c0 -25 2 -35 4 -22 2 12 2 32 0 45 -2 12 -4 2 -4 -23z"/>
<path d="M1571 14894 c0 -11 3 -14 6 -6 3 7 2 16 -1 19 -3 4 -6 -2 -5 -13z"/>
<path d="M2729 14903 c0 -5 -3 -27 -5 -50 -3 -27 -1 -43 5 -43 6 0 11 22 11
50 0 28 -2 50 -5 50 -3 0 -5 -3 -6 -7z"/>
<path d="M4823 14855 c0 -33 2 -45 4 -27 2 18 2 45 0 60 -2 15 -4 0 -4 -33z"/>
<path d="M4948 14898 c-2 -7 -1 -33 3 -58 l6 -45 1 58 c2 55 -2 71 -10 45z"/>
<path d="M760 14853 c0 -35 3 -44 10 -33 13 20 13 80 0 80 -5 0 -10 -21 -10
-47z"/>
<path d="M1215 14845 c0 -29 3 -57 8 -61 9 -10 9 87 -1 103 -4 6 -7 -13 -7
-42z"/>
<path d="M3553 14865 c0 -22 2 -30 4 -17 2 12 2 30 0 40 -3 9 -5 -1 -4 -23z"/>
<path d="M4362 14880 c0 -14 2 -19 5 -12 2 6 2 18 0 25 -3 6 -5 1 -5 -13z"/>
<path d="M5647 14865 c3 -22 7 -42 9 -44 8 -9 2 45 -6 64 -7 14 -8 8 -3 -20z"/>
<path d="M7040 14867 c0 -23 4 -36 10 -32 13 8 13 35 0 55 -7 11 -10 5 -10
-23z"/>
<path d="M3311 14870 c0 -14 4 -34 9 -45 8 -18 9 -18 9 5 0 14 -4 34 -9 45 -8
18 -9 18 -9 -5z"/>
<path d="M4098 14840 c-1 -28 0 -50 5 -50 4 0 7 23 7 50 0 65 -7 65 -12 0z"/>
<path d="M6912 14860 c0 -19 2 -27 5 -17 2 9 2 25 0 35 -3 9 -5 1 -5 -18z"/>
<path d="M1071 14864 c0 -11 3 -14 6 -6 3 7 2 16 -1 19 -3 4 -6 -2 -5 -13z"/>
<path d="M2382 14850 c0 -19 2 -27 5 -17 2 9 2 25 0 35 -3 9 -5 1 -5 -18z"/>
<path d="M5261 14864 c0 -11 3 -14 6 -6 3 7 2 16 -1 19 -3 4 -6 -2 -5 -13z"/>
<path d="M5400 14838 c0 -27 5 -48 10 -48 13 0 13 60 0 80 -7 11 -10 2 -10
-32z"/>
<path d="M7741 14864 c0 -11 3 -14 6 -6 3 7 2 16 -1 19 -3 4 -6 -2 -5 -13z"/>
<path d="M2270 14850 c0 -11 4 -20 9 -20 5 0 7 9 4 20 -3 11 -7 20 -9 20 -2 0
-4 -9 -4 -20z"/>
<path d="M3702 14840 c0 -14 2 -19 5 -12 2 6 2 18 0 25 -3 6 -5 1 -5 -13z"/>
<path d="M3071 14834 c0 -11 3 -14 6 -6 3 7 2 16 -1 19 -3 4 -6 -2 -5 -13z"/>
<path d="M7502 14820 c0 -19 2 -27 5 -17 2 9 2 25 0 35 -3 9 -5 1 -5 -18z"/>
<path d="M7991 14821 c-1 -24 2 -32 9 -25 7 7 7 19 1 35 -9 23 -10 22 -10 -10z"/>
<path d="M8287 14843 c-11 -10 -8 -53 3 -53 6 0 10 14 10 30 0 31 -2 35 -13
23z"/>
<path d="M4372 14815 c0 -16 2 -22 5 -12 2 9 2 23 0 30 -3 6 -5 -1 -5 -18z"/>
<path d="M5952 14815 c0 -16 2 -22 5 -12 2 9 2 23 0 30 -3 6 -5 -1 -5 -18z"/>
<path d="M6192 14815 c0 -16 2 -22 5 -12 2 9 2 23 0 30 -3 6 -5 -1 -5 -18z"/>
<path d="M8082 14815 c0 -16 2 -22 5 -12 2 9 2 23 0 30 -3 6 -5 -1 -5 -18z"/>
<path d="M10092 14815 c0 -16 2 -22 5 -12 2 9 2 23 0 30 -3 6 -5 -1 -5 -18z"/>
<path d="M3891 14814 c0 -11 3 -14 6 -6 3 7 2 16 -1 19 -3 4 -6 -2 -5 -13z"/>
<path d="M8042 14810 c0 -14 2 -19 5 -12 2 6 2 18 0 25 -3 6 -5 1 -5 -13z"/>
<path d="M3861 14804 c0 -11 3 -14 6 -6 3 7 2 16 -1 19 -3 4 -6 -2 -5 -13z"/>
<path d="M711 14754 c0 -11 3 -14 6 -6 3 7 2 16 -1 19 -3 4 -6 -2 -5 -13z"/>
<path d="M9662 14717 c-21 -25 -18 -52 6 -55 19 -3 22 1 22 27 0 34 -13 47
-28 28z"/>
<path d="M9825 14671 c-8 -26 1 -41 25 -41 15 0 17 5 11 27 -9 34 -27 41 -36
14z"/>
<path d="M680 14585 c-4 -124 0 -159 16 -142 4 4 2 57 -3 119 l-10 113 -3 -90z"/>
<path d="M593 14610 c0 -30 2 -43 4 -27 2 15 2 39 0 55 -2 15 -4 2 -4 -28z"/>
<path d="M3151 14634 c-27 -22 -31 -32 -29 -70 0 -24 5 -44 9 -44 4 0 10 -16
13 -35 4 -19 10 -35 14 -35 4 1 28 22 54 48 l48 47 -27 58 c-14 31 -32 57 -39
57 -7 0 -26 -12 -43 -26z"/>
<path d="M9326 14569 c-38 -30 -59 -75 -52 -113 7 -36 99 -136 124 -136 9 0
28 3 41 7 21 5 23 10 18 52 -3 25 -2 65 2 88 8 40 6 44 -33 82 -47 47 -62 50
-100 20z"/>
<path d="M3690 14535 l-24 -25 28 -77 c26 -76 48 -107 54 -78 2 8 8 15 13 15
12 0 49 75 49 101 0 23 -62 89 -84 89 -7 0 -23 -11 -36 -25z"/>
<path d="M692 14290 c0 -14 2 -19 5 -12 2 6 2 18 0 25 -3 6 -5 1 -5 -13z"/>
<path d="M11784 14219 c-2 -3 26 -80 63 -170 256 -638 515 -1390 709 -2059 31
-107 57 -196 59 -198 1 -2 112 216 246 484 l244 487 0 729 0 729 -658 2 c-363
1 -661 -1 -663 -4z"/>
<path d="M562 14195 c0 -16 2 -22 5 -12 2 9 2 23 0 30 -3 6 -5 -1 -5 -18z"/>
<path d="M612 14185 c0 -16 2 -22 5 -12 2 9 2 23 0 30 -3 6 -5 -1 -5 -18z"/>
<path d="M13255 13930 c-54 -21 -58 -63 -19 -205 25 -92 27 -115 28 -298 1
-178 2 -194 14 -155 7 23 20 88 29 143 25 158 9 482 -25 516 -4 4 -16 3 -27
-1z"/>
<path d="M11617 13459 c-40 -24 -65 -121 -44 -179 7 -20 30 -48 55 -67 115
-87 205 -49 206 88 1 45 -4 62 -25 90 -46 60 -145 95 -192 68z"/>
<path d="M11894 12681 c-42 -25 -69 -94 -61 -156 15 -138 172 -237 275 -175
79 48 82 178 7 276 -52 68 -157 94 -221 55z"/>
<path d="M12212 11825 c-32 -23 -57 -115 -42 -159 15 -45 79 -103 124 -112 76
-14 114 19 123 110 7 68 -13 108 -75 147 -51 32 -96 37 -130 14z"/>
<path d="M7676 13639 c-149 -37 -289 -212 -346 -434 -58 -224 -27 -479 79
-648 70 -111 139 -151 256 -151 67 0 89 5 138 28 123 61 257 257 307 451 29
113 36 270 16 365 -39 185 -128 323 -238 370 -60 26 -153 34 -212 19z m108
-300 c49 -14 121 -80 152 -141 29 -57 34 -176 9 -234 -39 -94 -121 -154 -208
-154 -92 0 -164 50 -208 145 -24 50 -29 73 -29 135 0 87 20 139 72 191 64 65
127 82 212 58z"/>
<path d="M6104 13100 c-42 -17 -64 -58 -64 -122 0 -74 20 -122 59 -142 35 -19
44 -19 94 -5 51 14 77 57 77 127 0 63 -19 113 -51 136 -25 17 -80 20 -115 6z"/>
<path d="M6160 12598 c-60 -30 -75 -64 -74 -158 1 -130 41 -184 135 -184 77 0
132 51 148 137 17 91 -25 184 -95 213 -45 19 -62 18 -114 -8z"/>
<path d="M9460 12838 c-14 -7 -33 -29 -42 -48 -21 -41 -24 -133 -5 -170 25
-50 138 -86 188 -60 48 26 73 150 42 210 -31 60 -129 96 -183 68z"/>
<path d="M9354 12321 c-138 -84 -113 -311 39 -352 54 -14 117 10 154 58 32 41
42 129 23 187 -33 102 -139 154 -216 107z"/>
<path d="M3803 12555 c-38 -16 -69 -63 -78 -114 -8 -51 28 -164 62 -190 45
-36 123 -21 173 34 51 55 24 241 -39 275 -27 14 -80 12 -118 -5z"/>
<path d="M3886 11950 c-62 -55 -86 -164 -57 -267 22 -82 100 -141 167 -129
149 29 188 281 60 394 -31 27 -45 32 -86 32 -41 0 -55 -5 -84 -30z"/>
<path d="M677 12492 c2 -155 2 -154 14 -146 8 5 10 36 5 107 -9 128 -22 153
-19 39z"/>
<path d="M593 12525 c0 -27 2 -38 4 -22 2 15 2 37 0 50 -2 12 -4 0 -4 -28z"/>
<path d="M721 12414 c0 -11 3 -14 6 -6 3 7 2 16 -1 19 -3 4 -6 -2 -5 -13z"/>
<path d="M692 12200 c0 -14 2 -19 5 -12 2 6 2 18 0 25 -3 6 -5 1 -5 -13z"/>
<path d="M562 12100 c0 -14 2 -19 5 -12 2 6 2 18 0 25 -3 6 -5 1 -5 -13z"/>
<path d="M610 12080 c0 -16 2 -30 4 -30 2 0 6 14 8 30 3 17 1 30 -4 30 -4 0
-8 -13 -8 -30z"/>
<path d="M712 11930 c0 -19 3 -57 8 -85 l7 -50 1 65 c0 36 -3 74 -8 85 -7 16
-9 13 -8 -15z"/>
<path d="M682 11865 c0 -16 2 -22 5 -12 2 9 2 23 0 30 -3 6 -5 -1 -5 -18z"/>
<path d="M702 11580 c0 -19 2 -27 5 -17 2 9 2 25 0 35 -3 9 -5 1 -5 -18z"/>
<path d="M666 11424 c-9 -24 -7 -62 4 -69 6 -4 10 12 10 39 0 48 -4 56 -14 30z"/>
<path d="M633 11230 c0 -30 2 -43 4 -27 2 15 2 39 0 55 -2 15 -4 2 -4 -28z"/>
<path d="M722 11130 c0 -19 2 -27 5 -17 2 9 2 25 0 35 -3 9 -5 1 -5 -18z"/>
<path d="M646 10965 c-3 -9 -5 -35 -5 -58 1 -40 2 -40 9 13 9 57 7 73 -4 45z"/>
<path d="M660 10883 c0 -16 5 -35 10 -43 7 -11 10 -4 10 28 0 23 -4 42 -10 42
-5 0 -10 -12 -10 -27z"/>
<path d="M699 10830 c-6 -45 -4 -58 7 -48 3 3 4 26 2 49 l-3 44 -6 -45z"/>
<path d="M632 10755 c0 -16 2 -22 5 -12 2 9 2 23 0 30 -3 6 -5 -1 -5 -18z"/>
<path d="M671 10754 c0 -11 3 -14 6 -6 3 7 2 16 -1 19 -3 4 -6 -2 -5 -13z"/>
<path d="M632 10665 c0 -53 1 -57 10 -32 7 20 7 39 0 60 -9 29 -10 27 -10 -28z"/>
<path d="M712 10565 c0 -16 2 -22 5 -12 2 9 2 23 0 30 -3 6 -5 -1 -5 -18z"/>
<path d="M677 10402 c1 -48 2 -102 3 -119 0 -18 5 -33 11 -33 8 0 10 31 4 113
-8 134 -21 162 -18 39z"/>
<path d="M593 10415 c0 -27 2 -38 4 -22 2 15 2 37 0 50 -2 12 -4 0 -4 -28z"/>
<path d="M621 10404 c0 -11 3 -14 6 -6 3 7 2 16 -1 19 -3 4 -6 -2 -5 -13z"/>
<path d="M722 10320 c0 -14 2 -19 5 -12 2 6 2 18 0 25 -3 6 -5 1 -5 -13z"/>
<path d="M671 10154 c0 -11 3 -14 6 -6 3 7 2 16 -1 19 -3 4 -6 -2 -5 -13z"/>
<path d="M692 10105 c0 -16 2 -22 5 -12 2 9 2 23 0 30 -3 6 -5 -1 -5 -18z"/>
<path d="M562 10005 c0 -16 2 -22 5 -12 2 9 2 23 0 30 -3 6 -5 -1 -5 -18z"/>
<path d="M610 9996 c0 -31 6 -34 13 -6 3 11 1 23 -4 26 -5 3 -9 -6 -9 -20z"/>
<path d="M661 9854 c0 -11 3 -14 6 -6 3 7 2 16 -1 19 -3 4 -6 -2 -5 -13z"/>
<path d="M713 9792 c3 -40 8 -76 11 -79 11 -11 6 121 -5 137 -7 11 -9 -6 -6
-58z"/>
<path d="M683 9785 c0 -22 2 -30 4 -17 2 12 2 30 0 40 -3 9 -5 -1 -4 -23z"/>
<path d="M702 9495 c0 -16 2 -22 5 -12 2 9 2 23 0 30 -3 6 -5 -1 -5 -18z"/>
<path d="M664 9315 c-3 -8 -1 -27 4 -42 10 -27 10 -26 11 15 1 43 -5 54 -15
27z"/>
<path d="M633 9145 c0 -33 2 -45 4 -27 2 18 2 45 0 60 -2 15 -4 0 -4 -33z"/>
<path d="M722 9035 c0 -16 2 -22 5 -12 2 9 2 23 0 30 -3 6 -5 -1 -5 -18z"/>
<path d="M643 8820 c0 -25 2 -35 4 -22 2 12 2 32 0 45 -2 12 -4 2 -4 -23z"/>
<path d="M660 8791 c0 -22 5 -43 10 -46 6 -4 10 10 10 34 0 22 -4 43 -10 46
-6 4 -10 -10 -10 -34z"/>
<path d="M698 8746 c-2 -19 -1 -43 3 -53 5 -11 8 2 8 35 1 59 -5 69 -11 18z"/>
<path d="M632 8605 c0 -64 2 -82 8 -62 5 16 5 56 1 90 l-8 62 -1 -90z"/>
<path d="M671 8654 c0 -11 3 -14 6 -6 3 7 2 16 -1 19 -3 4 -6 -2 -5 -13z"/>
<path d="M712 8465 c0 -16 2 -22 5 -12 2 9 2 23 0 30 -3 6 -5 -1 -5 -18z"/>
<path d="M593 8330 c0 -30 2 -43 4 -27 2 15 2 39 0 55 -2 15 -4 2 -4 -28z"/>
<path d="M681 8273 c0 -70 3 -113 9 -113 11 0 11 75 0 165 -6 53 -7 48 -9 -52z"/>
<path d="M622 8315 c0 -16 2 -22 5 -12 2 9 2 23 0 30 -3 6 -5 -1 -5 -18z"/>
<path d="M722 8230 c0 -14 2 -19 5 -12 2 6 2 18 0 25 -3 6 -5 1 -5 -13z"/>
<path d="M671 8064 c0 -11 3 -14 6 -6 3 7 2 16 -1 19 -3 4 -6 -2 -5 -13z"/>
<path d="M692 8020 c0 -14 2 -19 5 -12 2 6 2 18 0 25 -3 6 -5 1 -5 -13z"/>
<path d="M562 7915 c0 -16 2 -22 5 -12 2 9 2 23 0 30 -3 6 -5 -1 -5 -18z"/>
<path d="M616 7925 c-3 -9 -6 -26 -5 -38 1 -14 4 -9 9 13 9 37 7 52 -4 25z"/>
<path d="M661 7774 c0 -11 3 -14 6 -6 3 7 2 16 -1 19 -3 4 -6 -2 -5 -13z"/>
<path d="M716 7695 c3 -38 8 -72 10 -74 9 -10 3 116 -7 129 -7 11 -8 -6 -3
-55z"/>
<path d="M682 7690 c0 -19 2 -27 5 -17 2 9 2 25 0 35 -3 9 -5 1 -5 -18z"/>
<path d="M703 7405 c0 -22 2 -30 4 -17 2 12 2 30 0 40 -3 9 -5 -1 -4 -23z"/>
<path d="M661 7223 c1 -10 5 -29 9 -43 7 -21 8 -19 9 18 1 23 -3 42 -9 42 -5
0 -10 -8 -9 -17z"/>
<path d="M633 7045 c0 -27 2 -38 4 -22 2 15 2 37 0 50 -2 12 -4 0 -4 -28z"/>
<path d="M722 6940 c0 -14 2 -19 5 -12 2 6 2 18 0 25 -3 6 -5 1 -5 -13z"/>
<path d="M646 6778 c-3 -13 -5 -39 -5 -58 1 -27 3 -22 9 20 9 58 7 77 -4 38z"/>
<path d="M660 6685 c0 -28 4 -44 10 -40 6 3 10 21 10 40 0 19 -4 37 -10 40 -6
4 -10 -12 -10 -40z"/>
<path d="M698 6648 c-3 -24 -1 -47 3 -52 5 -6 9 13 9 42 0 63 -6 68 -12 10z"/>
<path d="M632 6510 c-1 -63 1 -80 9 -67 7 11 7 40 1 85 l-9 67 -1 -85z"/>
<path d="M712 6380 c0 -19 2 -27 5 -17 2 9 2 25 0 35 -3 9 -5 1 -5 -18z"/>
<path d="M593 6235 c0 -27 2 -38 4 -22 2 15 2 37 0 50 -2 12 -4 0 -4 -28z"/>
<path d="M680 6205 c-4 -98 -1 -127 11 -139 11 -12 11 83 -1 164 l-7 55 -3
-80z"/>
<path d="M621 6234 c0 -11 3 -14 6 -6 3 7 2 16 -1 19 -3 4 -6 -2 -5 -13z"/>
<path d="M721 6134 c0 -11 3 -14 6 -6 3 7 2 16 -1 19 -3 4 -6 -2 -5 -13z"/>
<path d="M614 5826 c-3 -21 -4 -39 -1 -42 3 -4 9 10 13 30 3 21 4 39 1 42 -3
4 -9 -10 -13 -30z"/>
<path d="M562 5825 c0 -16 2 -22 5 -12 2 9 2 23 0 30 -3 6 -5 -1 -5 -18z"/>
<path d="M712 5650 c0 -19 3 -57 8 -85 l7 -50 1 65 c0 36 -3 74 -8 85 -7 16
-9 13 -8 -15z"/>
<path d="M682 5600 c0 -19 2 -27 5 -17 2 9 2 25 0 35 -3 9 -5 1 -5 -18z"/>
<path d="M703 5305 c0 -22 2 -30 4 -17 2 12 2 30 0 40 -3 9 -5 -1 -4 -23z"/>
<path d="M666 5113 c9 -52 14 -54 14 -5 0 23 -5 42 -10 42 -7 0 -8 -14 -4 -37z"/>
<path d="M633 4950 c0 -30 2 -43 4 -27 2 15 2 39 0 55 -2 15 -4 2 -4 -28z"/>
<path d="M722 4840 c0 -19 2 -27 5 -17 2 9 2 25 0 35 -3 9 -5 1 -5 -18z"/>
<path d="M646 4689 c-3 -17 -5 -48 -5 -68 1 -24 4 -15 10 29 9 68 6 92 -5 39z"/>
<path d="M660 4598 c0 -18 5 -40 10 -48 7 -11 10 -2 10 33 0 26 -4 47 -10 47
-5 0 -10 -15 -10 -32z"/>
<path d="M696 4558 c-5 -21 -5 -46 0 -55 6 -15 8 -13 12 10 2 15 2 39 0 55 -4
25 -5 24 -12 -10z"/>
<path d="M632 4420 c-1 -63 2 -79 9 -61 5 14 6 47 0 85 l-9 61 0 -85z"/>
<path d="M711 4304 c0 -11 3 -14 6 -6 3 7 2 16 -1 19 -3 4 -6 -2 -5 -13z"/>
<path d="M593 4145 c0 -27 2 -38 4 -22 2 15 2 37 0 50 -2 12 -4 0 -4 -28z"/>
<path d="M681 4082 c-1 -73 3 -111 9 -107 11 7 12 84 0 165 -6 47 -7 39 -9
-58z"/>
<path d="M672 3875 c0 -16 2 -22 5 -12 2 9 2 23 0 30 -3 6 -5 -1 -5 -18z"/>
<path d="M692 3825 c0 -16 2 -22 5 -12 2 9 2 23 0 30 -3 6 -5 -1 -5 -18z"/>
<path d="M562 3730 c0 -14 2 -19 5 -12 2 6 2 18 0 25 -3 6 -5 1 -5 -13z"/>
<path d="M617 3743 c-4 -3 -7 -20 -6 -37 l1 -31 8 35 c9 36 8 45 -3 33z"/>
<path d="M657 3589 c4 -13 8 -18 11 -10 2 7 -1 18 -6 23 -8 8 -9 4 -5 -13z"/>
<path d="M716 3510 c4 -41 8 -77 10 -79 9 -10 3 126 -6 139 -8 10 -9 -8 -4
-60z"/>
<path d="M681 3484 c0 -11 3 -14 6 -6 3 7 2 16 -1 19 -3 4 -6 -2 -5 -13z"/>
<path d="M703 3210 c0 -25 2 -35 4 -22 2 12 2 32 0 45 -2 12 -4 2 -4 -23z"/>
<path d="M667 3063 c-11 -10 -8 -71 3 -78 6 -4 10 12 10 39 0 47 -2 51 -13 39z"/>
<path d="M633 2860 c0 -30 2 -43 4 -27 2 15 2 39 0 55 -2 15 -4 2 -4 -28z"/>
<path d="M723 2760 c0 -25 2 -35 4 -22 2 12 2 32 0 45 -2 12 -4 2 -4 -23z"/>
<path d="M647 2590 c-4 -14 -6 -41 -6 -60 1 -34 2 -33 10 10 10 51 7 89 -4 50z"/>
<path d="M661 2518 c1 -18 5 -44 9 -58 6 -20 8 -14 9 27 1 28 -3 55 -9 58 -6
4 -10 -7 -9 -27z"/>
<path d="M697 2463 c-3 -15 -1 -36 3 -47 7 -16 9 -9 9 27 1 52 -4 61 -12 20z"/>
<path d="M632 2325 c0 -68 2 -84 9 -64 6 16 6 50 1 90 l-10 64 0 -90z"/>
<path d="M672 2380 c0 -14 2 -19 5 -12 2 6 2 18 0 25 -3 6 -5 1 -5 -13z"/>
<path d="M711 2194 c0 -11 3 -14 6 -6 3 7 2 16 -1 19 -3 4 -6 -2 -5 -13z"/>
<path d="M672 1780 c0 -14 2 -19 5 -12 2 6 2 18 0 25 -3 6 -5 1 -5 -13z"/>
<path d="M692 1735 c0 -16 2 -22 5 -12 2 9 2 23 0 30 -3 6 -5 -1 -5 -18z"/>
<path d="M562 1630 c0 -19 2 -27 5 -17 2 9 2 25 0 35 -3 9 -5 1 -5 -18z"/>
<path d="M610 1621 c0 -17 2 -31 4 -31 8 0 13 51 5 56 -5 3 -9 -9 -9 -25z"/>
<path d="M658 1503 c5 -21 7 -23 10 -9 2 10 0 22 -6 28 -6 6 -7 0 -4 -19z"/>
<path d="M711 1455 c0 -22 4 -60 8 -85 8 -44 9 -44 9 20 0 36 -3 74 -8 85 -7
16 -9 11 -9 -20z"/>
<path d="M682 1400 c0 -19 2 -27 5 -17 2 9 2 25 0 35 -3 9 -5 1 -5 -18z"/>
<path d="M2621 1335 c0 -42 2 -55 9 -44 6 10 6 34 1 60 l-9 44 -1 -60z"/>
<path d="M1060 1363 c0 -10 5 -25 10 -33 7 -11 10 -7 10 18 0 17 -4 32 -10 32
-5 0 -10 -8 -10 -17z"/>
<path d="M1150 1358 c0 -19 2 -20 10 -8 13 19 13 30 0 30 -5 0 -10 -10 -10
-22z"/>
<path d="M1230 1349 c0 -17 4 -28 10 -24 6 3 10 17 10 31 0 13 -4 24 -10 24
-5 0 -10 -14 -10 -31z"/>
<path d="M1692 1360 c0 -14 2 -19 5 -12 2 6 2 18 0 25 -3 6 -5 1 -5 -13z"/>
<path d="M1912 1360 c0 -14 2 -19 5 -12 2 6 2 18 0 25 -3 6 -5 1 -5 -13z"/>
<path d="M4002 1360 c0 -14 2 -19 5 -12 2 6 2 18 0 25 -3 6 -5 1 -5 -13z"/>
<path d="M1325 1360 c-3 -5 -1 -10 4 -10 6 0 11 5 11 10 0 6 -2 10 -4 10 -3 0
-8 -4 -11 -10z"/>
<path d="M983 1320 c0 -25 2 -35 4 -22 2 12 2 32 0 45 -2 12 -4 2 -4 -23z"/>
<path d="M1271 1298 c-1 -39 3 -68 9 -68 12 0 12 87 0 115 -6 14 -9 -1 -9 -47z"/>
<path d="M1472 1340 c0 -14 2 -19 5 -12 2 6 2 18 0 25 -3 6 -5 1 -5 -13z"/>
<path d="M3762 1340 c0 -14 2 -19 5 -12 2 6 2 18 0 25 -3 6 -5 1 -5 -13z"/>
<path d="M3793 1315 c0 -27 2 -38 4 -22 2 15 2 37 0 50 -2 12 -4 0 -4 -28z"/>
<path d="M1563 1295 c0 -27 2 -38 4 -22 2 15 2 37 0 50 -2 12 -4 0 -4 -28z"/>
<path d="M1178 1324 c-5 -4 -8 -28 -8 -53 0 -32 3 -42 11 -34 5 5 9 29 7 53
-2 23 -6 38 -10 34z"/>
<path d="M1305 1236 c-5 -58 -3 -105 3 -123 8 -22 11 -2 11 95 1 67 -1 122 -3
122 -2 0 -7 -42 -11 -94z"/>
<path d="M2311 1314 c0 -11 3 -14 6 -6 3 7 2 16 -1 19 -3 4 -6 -2 -5 -13z"/>
<path d="M4403 1280 c0 -30 2 -43 4 -27 2 15 2 39 0 55 -2 15 -4 2 -4 -28z"/>
<path d="M1131 1304 c0 -11 3 -14 6 -6 3 7 2 16 -1 19 -3 4 -6 -2 -5 -13z"/>
<path d="M1691 1303 c0 -10 4 -27 9 -38 7 -16 9 -13 9 18 1 20 -3 37 -9 37 -5
0 -10 -8 -9 -17z"/>
<path d="M2851 1285 c0 -22 4 -60 8 -85 8 -44 9 -44 9 20 0 36 -3 74 -8 85 -7
16 -9 11 -9 -20z"/>
<path d="M3652 1295 c0 -16 2 -22 5 -12 2 9 2 23 0 30 -3 6 -5 -1 -5 -18z"/>
<path d="M3922 1300 c0 -14 2 -19 5 -12 2 6 2 18 0 25 -3 6 -5 1 -5 -13z"/>
<path d="M1832 1290 c0 -14 2 -19 5 -12 2 6 2 18 0 25 -3 6 -5 1 -5 -13z"/>
<path d="M761 1265 c0 -22 4 -47 9 -55 8 -12 9 -10 9 10 -1 14 -5 39 -9 55 -7
29 -8 29 -9 -10z"/>
<path d="M2273 1250 c0 -30 2 -43 4 -27 2 15 2 39 0 55 -2 15 -4 2 -4 -28z"/>
<path d="M2558 1280 c-4 -14 -8 -38 -8 -55 1 -25 2 -27 11 -12 6 9 9 34 7 55
-3 33 -4 35 -10 12z"/>
<path d="M2313 1230 c0 -36 2 -50 4 -32 2 17 2 47 0 65 -2 17 -4 3 -4 -33z"/>
<path d="M2403 1255 c0 -22 2 -30 4 -17 2 12 2 30 0 40 -3 9 -5 -1 -4 -23z"/>
<path d="M4363 1255 c0 -22 2 -30 4 -17 2 12 2 30 0 40 -3 9 -5 -1 -4 -23z"/>
<path d="M2732 1255 c0 -16 2 -22 5 -12 2 9 2 23 0 30 -3 6 -5 -1 -5 -18z"/>
<path d="M3773 1240 c0 -25 2 -35 4 -22 2 12 2 32 0 45 -2 12 -4 2 -4 -23z"/>
<path d="M4652 1250 c0 -19 2 -27 5 -17 2 9 2 25 0 35 -3 9 -5 1 -5 -18z"/>
<path d="M4832 1260 c0 -14 2 -19 5 -12 2 6 2 18 0 25 -3 6 -5 1 -5 -13z"/>
<path d="M1142 1230 c0 -19 2 -27 5 -17 2 9 2 25 0 35 -3 9 -5 1 -5 -18z"/>
<path d="M1231 1233 c1 -16 5 -39 9 -53 6 -20 8 -14 9 28 1 28 -3 52 -9 52 -5
0 -10 -12 -9 -27z"/>
<path d="M2902 1240 c0 -14 2 -19 5 -12 2 6 2 18 0 25 -3 6 -5 1 -5 -13z"/>
<path d="M4992 1240 c0 -14 2 -19 5 -12 2 6 2 18 0 25 -3 6 -5 1 -5 -13z"/>
<path d="M802 1225 c0 -16 2 -22 5 -12 2 9 2 23 0 30 -3 6 -5 -1 -5 -18z"/>
<path d="M1093 1185 c0 -38 2 -53 4 -32 2 20 2 52 0 70 -2 17 -4 1 -4 -38z"/>
<path d="M1682 1225 c0 -16 2 -22 5 -12 2 9 2 23 0 30 -3 6 -5 -1 -5 -18z"/>
<path d="M3183 1195 c0 -33 2 -45 4 -27 2 18 2 45 0 60 -2 15 -4 0 -4 -33z"/>
<path d="M3231 1234 c0 -11 3 -14 6 -6 3 7 2 16 -1 19 -3 4 -6 -2 -5 -13z"/>
<path d="M3400 1180 c0 -40 3 -70 7 -67 7 7 5 128 -2 136 -3 2 -5 -29 -5 -69z"/>
<path d="M2230 1221 c0 -11 5 -23 10 -26 6 -3 10 3 10 14 0 11 -4 23 -10 26
-5 3 -10 -3 -10 -14z"/>
<path d="M2442 1200 c0 -14 2 -19 5 -12 2 6 2 18 0 25 -3 6 -5 1 -5 -13z"/>
<path d="M3071 1204 c0 -11 3 -14 6 -6 3 7 2 16 -1 19 -3 4 -6 -2 -5 -13z"/>
<path d="M3543 1170 c0 -30 2 -43 4 -27 2 15 2 39 0 55 -2 15 -4 2 -4 -28z"/>
<path d="M5490 1164 c0 -34 4 -53 10 -49 6 3 10 28 10 56 0 27 -4 49 -10 49
-5 0 -10 -25 -10 -56z"/>
<path d="M1750 1173 c0 -18 5 -33 10 -33 13 0 13 30 0 50 -7 11 -10 7 -10 -17z"/>
<path d="M2653 1145 c0 -33 2 -45 4 -27 2 18 2 45 0 60 -2 15 -4 0 -4 -33z"/>
<path d="M5682 1175 c0 -16 2 -22 5 -12 2 9 2 23 0 30 -3 6 -5 -1 -5 -18z"/>
<path d="M5942 1170 c0 -19 2 -27 5 -17 2 9 2 25 0 35 -3 9 -5 1 -5 -18z"/>
<path d="M1533 1110 c0 -41 2 -58 4 -37 2 20 2 54 0 75 -2 20 -4 3 -4 -38z"/>
<path d="M1951 1164 c0 -11 3 -14 6 -6 3 7 2 16 -1 19 -3 4 -6 -2 -5 -13z"/>
<path d="M3483 1125 c0 -33 2 -45 4 -27 2 18 2 45 0 60 -2 15 -4 0 -4 -33z"/>
<path d="M3845 1171 c-3 -5 -1 -12 5 -16 5 -3 10 1 10 9 0 18 -6 21 -15 7z"/>
<path d="M1392 1145 c0 -16 2 -22 5 -12 2 9 2 23 0 30 -3 6 -5 -1 -5 -18z"/>
<path d="M2010 1170 c-1 -3 -3 -23 -5 -45 -2 -28 -1 -34 5 -20 6 16 9 10 12
-25 l5 -45 1 50 c0 42 -12 102 -18 85z"/>
<path d="M2163 1115 c0 -33 2 -45 4 -27 2 18 2 45 0 60 -2 15 -4 0 -4 -33z"/>
<path d="M2432 1150 c0 -14 2 -19 5 -12 2 6 2 18 0 25 -3 6 -5 1 -5 -13z"/>
<path d="M1072 1130 c0 -19 2 -27 5 -17 2 9 2 25 0 35 -3 9 -5 1 -5 -18z"/>
<path d="M4742 1140 c0 -14 2 -19 5 -12 2 6 2 18 0 25 -3 6 -5 1 -5 -13z"/>
<path d="M4883 1125 c0 -22 2 -30 4 -17 2 12 2 30 0 40 -3 9 -5 -1 -4 -23z"/>
<path d="M7672 1140 c0 -14 2 -19 5 -12 2 6 2 18 0 25 -3 6 -5 1 -5 -13z"/>
<path d="M2792 1120 c0 -19 2 -27 5 -17 2 9 2 25 0 35 -3 9 -5 1 -5 -18z"/>
<path d="M4112 1120 c0 -19 2 -27 5 -17 2 9 2 25 0 35 -3 9 -5 1 -5 -18z"/>
<path d="M6972 1125 c0 -16 2 -22 5 -12 2 9 2 23 0 30 -3 6 -5 -1 -5 -18z"/>
<path d="M697 1133 c-3 -5 -1 -17 4 -28 7 -17 8 -17 8 8 1 27 -4 34 -12 20z"/>
<path d="M1571 1124 c0 -11 3 -14 6 -6 3 7 2 16 -1 19 -3 4 -6 -2 -5 -13z"/>
<path d="M3272 1100 c0 -14 2 -19 5 -12 2 6 2 18 0 25 -3 6 -5 1 -5 -13z"/>
<path d="M5672 1095 c0 -16 2 -22 5 -12 2 9 2 23 0 30 -3 6 -5 -1 -5 -18z"/>
<path d="M8301 1104 c0 -11 3 -14 6 -6 3 7 2 16 -1 19 -3 4 -6 -2 -5 -13z"/>
<path d="M6342 1090 c0 -14 2 -19 5 -12 2 6 2 18 0 25 -3 6 -5 1 -5 -13z"/>
<path d="M1240 1083 c0 -10 5 -25 10 -33 7 -11 10 -7 10 18 0 17 -4 32 -10 32
-5 0 -10 -8 -10 -17z"/>
<path d="M2093 1055 c0 -27 2 -38 4 -22 2 15 2 37 0 50 -2 12 -4 0 -4 -28z"/>
<path d="M3342 1070 c0 -19 2 -27 5 -17 2 9 2 25 0 35 -3 9 -5 1 -5 -18z"/>
<path d="M4181 1060 c0 -36 2 -41 10 -27 7 12 7 27 0 45 -9 25 -9 24 -10 -18z"/>
<path d="M5431 1074 c0 -11 3 -14 6 -6 3 7 2 16 -1 19 -3 4 -6 -2 -5 -13z"/>
<path d="M2201 1038 c-1 -20 4 -40 9 -43 12 -7 12 19 0 55 -7 22 -8 21 -9 -12z"/>
<path d="M6281 1054 c0 -11 3 -14 6 -6 3 7 2 16 -1 19 -3 4 -6 -2 -5 -13z"/>
<path d="M941 1024 c0 -11 3 -14 6 -6 3 7 2 16 -1 19 -3 4 -6 -2 -5 -13z"/>
<path d="M1212 1010 c0 -19 2 -27 5 -17 2 9 2 25 0 35 -3 9 -5 1 -5 -18z"/>
<path d="M2833 1000 c0 -25 2 -35 4 -22 2 12 2 32 0 45 -2 12 -4 2 -4 -23z"/>
<path d="M3300 1013 c0 -18 5 -33 10 -33 13 0 13 30 0 50 -7 11 -10 7 -10 -17z"/>
<path d="M5253 995 c0 -27 2 -38 4 -22 2 15 2 37 0 50 -2 12 -4 0 -4 -28z"/>
<path d="M5390 1028 c0 -7 5 -20 10 -28 8 -12 10 -11 10 7 0 12 -4 25 -10 28
-5 3 -10 0 -10 -7z"/>
<path d="M1063 980 c0 -25 2 -35 4 -22 2 12 2 32 0 45 -2 12 -4 2 -4 -23z"/>
<path d="M1283 1013 c-8 -3 -13 -25 -13 -61 0 -42 3 -53 12 -44 8 8 23 115 15
111 -1 0 -8 -3 -14 -6z"/>
<path d="M3372 960 c0 -59 1 -62 10 -32 8 22 8 42 0 65 -9 29 -10 26 -10 -33z"/>
<path d="M5463 960 c0 -36 2 -50 4 -32 2 17 2 47 0 65 -2 17 -4 3 -4 -33z"/>
<path d="M7491 1004 c0 -11 3 -14 6 -6 3 7 2 16 -1 19 -3 4 -6 -2 -5 -13z"/>
<path d="M2403 960 c0 -25 2 -35 4 -22 2 12 2 32 0 45 -2 12 -4 2 -4 -23z"/>
<path d="M2623 955 c0 -27 2 -38 4 -22 2 15 2 37 0 50 -2 12 -4 0 -4 -28z"/>
<path d="M3148 975 c-3 -14 -1 -28 3 -31 5 -3 9 9 9 25 0 38 -6 40 -12 6z"/>
<path d="M1363 940 c0 -30 2 -43 4 -27 2 15 2 39 0 55 -2 15 -4 2 -4 -28z"/>
<path d="M2653 950 c0 -25 2 -35 4 -22 2 12 2 32 0 45 -2 12 -4 2 -4 -23z"/>
<path d="M3453 940 c0 -30 2 -43 4 -27 2 15 2 39 0 55 -2 15 -4 2 -4 -28z"/>
<path d="M7562 960 c0 -19 2 -27 5 -17 2 9 2 25 0 35 -3 9 -5 1 -5 -18z"/>
<path d="M1982 960 c0 -14 2 -19 5 -12 2 6 2 18 0 25 -3 6 -5 1 -5 -13z"/>
<path d="M2760 930 c0 -29 3 -50 7 -47 7 8 6 88 -2 95 -3 3 -5 -19 -5 -48z"/>
<path d="M4851 933 c0 -30 3 -53 9 -53 11 0 11 31 0 75 -7 26 -8 22 -9 -22z"/>
<path d="M9652 950 c0 -14 2 -19 5 -12 2 6 2 18 0 25 -3 6 -5 1 -5 -13z"/>
<path d="M660 933 c0 -16 5 -35 10 -43 7 -11 10 -4 10 28 0 23 -4 42 -10 42
-5 0 -10 -12 -10 -27z"/>
<path d="M2133 905 c0 -33 2 -45 4 -27 2 18 2 45 0 60 -2 15 -4 0 -4 -33z"/>
<path d="M3003 920 c0 -25 2 -35 4 -22 2 12 2 32 0 45 -2 12 -4 2 -4 -23z"/>
<path d="M5551 944 c0 -11 3 -14 6 -6 3 7 2 16 -1 19 -3 4 -6 -2 -5 -13z"/>
<path d="M6319 925 c-6 -40 -4 -53 7 -43 3 3 4 23 2 44 l-3 39 -6 -40z"/>
<path d="M911 934 c0 -11 3 -14 6 -6 3 7 2 16 -1 19 -3 4 -6 -2 -5 -13z"/>
<path d="M4222 895 c0 -16 2 -22 5 -12 2 9 2 23 0 30 -3 6 -5 -1 -5 -18z"/>
<path d="M2060 888 c0 -15 5 -30 10 -33 13 -8 13 25 0 45 -8 12 -10 9 -10 -12z"/>
<path d="M4162 880 c0 -14 2 -19 5 -12 2 6 2 18 0 25 -3 6 -5 1 -5 -13z"/>
<path d="M1393 825 c0 -33 2 -45 4 -27 2 18 2 45 0 60 -2 15 -4 0 -4 -33z"/>
<path d="M1422 860 c0 -14 2 -19 5 -12 2 6 2 18 0 25 -3 6 -5 1 -5 -13z"/>
<path d="M3483 825 c0 -33 2 -45 4 -27 2 18 2 45 0 60 -2 15 -4 0 -4 -33z"/>
<path d="M2872 850 c0 -14 2 -19 5 -12 2 6 2 18 0 25 -3 6 -5 1 -5 -13z"/>
<path d="M4983 815 c0 -33 2 -45 4 -27 2 18 2 45 0 60 -2 15 -4 0 -4 -33z"/>
<path d="M790 816 c0 -25 5 -48 10 -51 6 -4 10 11 10 39 0 25 -4 48 -10 51 -6
4 -10 -11 -10 -39z"/>
<path d="M2893 805 c0 -33 2 -45 4 -27 2 18 2 45 0 60 -2 15 -4 0 -4 -33z"/>
<path d="M4961 844 c0 -11 3 -14 6 -6 3 7 2 16 -1 19 -3 4 -6 -2 -5 -13z"/>
<path d="M5570 838 c0 -16 5 -28 10 -28 13 0 13 20 0 40 -8 12 -10 9 -10 -12z"/>
<path d="M7673 820 c0 -25 2 -35 4 -22 2 12 2 32 0 45 -2 12 -4 2 -4 -23z"/>
<path d="M1992 825 c0 -16 2 -22 5 -12 2 9 2 23 0 30 -3 6 -5 -1 -5 -18z"/>
<path d="M2423 785 c0 -27 2 -38 4 -22 2 15 2 37 0 50 -2 12 -4 0 -4 -28z"/>
<path d="M4941 814 c0 -11 3 -14 6 -6 3 7 2 16 -1 19 -3 4 -6 -2 -5 -13z"/>
<path d="M7081 814 c0 -11 3 -14 6 -6 3 7 2 16 -1 19 -3 4 -6 -2 -5 -13z"/>
<path d="M9171 814 c0 -11 3 -14 6 -6 3 7 2 16 -1 19 -3 4 -6 -2 -5 -13z"/>
<path d="M1416 775 c-4 -26 -3 -52 3 -62 8 -14 10 -3 11 45 0 34 -2 62 -4 62
-2 0 -7 -20 -10 -45z"/>
<path d="M2720 770 c0 -29 3 -51 6 -47 8 7 7 87 0 95 -3 3 -6 -19 -6 -48z"/>
<path d="M633 765 c0 -27 2 -38 4 -22 2 15 2 37 0 50 -2 12 -4 0 -4 -28z"/>
<path d="M1102 780 c0 -14 2 -19 5 -12 2 6 2 18 0 25 -3 6 -5 1 -5 -13z"/>
<path d="M3082 775 c0 -16 2 -22 5 -12 2 9 2 23 0 30 -3 6 -5 -1 -5 -18z"/>
<path d="M4817 786 c-3 -8 -2 -27 3 -43 8 -26 8 -25 9 15 1 43 -3 52 -12 28z"/>
<path d="M5282 780 c0 -14 2 -19 5 -12 2 6 2 18 0 25 -3 6 -5 1 -5 -13z"/>
<path d="M3186 775 c-3 -9 -6 -26 -5 -38 1 -16 4 -12 10 12 10 34 6 55 -5 26z"/>
<path d="M3513 745 c0 -27 2 -38 4 -22 2 15 2 37 0 50 -2 12 -4 0 -4 -28z"/>
<path d="M862 755 c0 -16 2 -22 5 -12 2 9 2 23 0 30 -3 6 -5 -1 -5 -18z"/>
<path d="M5052 760 c0 -14 2 -19 5 -12 2 6 2 18 0 25 -3 6 -5 1 -5 -13z"/>
<path d="M5601 754 c0 -11 3 -14 6 -6 3 7 2 16 -1 19 -3 4 -6 -2 -5 -13z"/>
<path d="M1292 740 c0 -14 2 -19 5 -12 2 6 2 18 0 25 -3 6 -5 1 -5 -13z"/>
<path d="M2652 740 c0 -14 2 -19 5 -12 2 6 2 18 0 25 -3 6 -5 1 -5 -13z"/>
<path d="M4592 725 c0 -16 2 -22 5 -12 2 9 2 23 0 30 -3 6 -5 -1 -5 -18z"/>
<path d="M5271 734 c0 -11 3 -14 6 -6 3 7 2 16 -1 19 -3 4 -6 -2 -5 -13z"/>
<path d="M5428 8851 c9 -16 19 -28 21 -25 6 6 -21 54 -30 54 -5 0 0 -13 9 -29z"/>
<path d="M8650 8855 c0 -8 2 -15 4 -15 2 0 6 7 10 15 3 8 1 15 -4 15 -6 0 -10
-7 -10 -15z"/>
<path d="M5456 8785 c4 -8 8 -15 10 -15 2 0 4 7 4 15 0 8 -4 15 -10 15 -5 0
-7 -7 -4 -15z"/>
<path d="M8613 8794 c3 -4 -1 -20 -9 -35 -45 -88 -74 -213 -85 -363 -19 -270
-2 -577 42 -784 5 -26 14 -82 19 -125 14 -125 44 -254 70 -307 13 -28 22 -100
24 -204 5 -178 6 -196 15 -196 21 0 27 64 20 225 -6 142 -11 183 -32 250 -14
44 -34 127 -45 185 -54 281 -63 334 -78 455 -19 155 -14 537 9 645 20 93 56
222 67 243 8 13 6 17 -7 17 -9 0 -14 -3 -10 -6z"/>
<path d="M5476 8762 c-3 -5 1 -33 10 -61 43 -145 55 -237 61 -446 5 -180 3
-235 -16 -380 -12 -93 -28 -201 -36 -240 -8 -38 -24 -124 -35 -190 -12 -66
-33 -156 -46 -200 -22 -68 -26 -106 -31 -251 -4 -125 -2 -177 7 -194 7 -13 15
-18 19 -12 3 6 8 79 9 163 3 146 10 194 45 299 20 59 46 200 52 276 2 33 8 71
13 85 5 13 13 56 16 94 4 39 12 90 17 114 17 78 12 570 -8 704 -9 64 -20 117
-24 117 -4 0 -13 24 -19 53 -12 59 -24 84 -34 69z"/>
<path d="M5047 8455 c-45 -44 -4 -117 62 -113 47 2 83 -20 101 -61 23 -56 46
-28 28 36 -17 62 -34 88 -78 117 -54 35 -92 43 -113 21z"/>
<path d="M8973 8449 c-56 -28 -87 -61 -101 -107 -24 -79 -8 -123 23 -63 24 48
59 69 104 64 51 -6 81 21 81 72 0 29 -5 37 -26 45 -33 13 -32 13 -81 -11z"/>
<path d="M4530 8410 c-8 -4 -37 -16 -65 -26 -33 -12 -67 -35 -100 -69 -51 -52
-115 -158 -103 -170 3 -4 33 20 65 52 72 72 126 103 151 86 9 -6 16 -18 16
-27 -1 -9 2 -16 7 -16 5 0 9 6 9 14 0 19 16 28 60 36 45 7 50 30 19 87 -24 44
-32 48 -59 33z"/>
<path d="M9546 8381 c-37 -53 -32 -84 14 -91 20 -4 41 -10 48 -14 7 -4 27 -2
46 5 30 11 38 10 72 -11 22 -13 67 -50 102 -84 63 -61 76 -62 46 -3 -54 104
-140 186 -222 211 -26 8 -54 17 -63 20 -11 5 -24 -5 -43 -33z"/>
<path d="M9655 8180 c3 -5 8 -10 11 -10 2 0 4 5 4 10 0 6 -5 10 -11 10 -5 0
-7 -4 -4 -10z"/>
<path d="M9682 8120 c0 -14 2 -19 5 -12 2 6 2 18 0 25 -3 6 -5 1 -5 -13z"/>
<path d="M5109 8065 c-48 -26 -80 -133 -80 -270 -1 -115 15 -155 67 -174 36
-13 60 -7 35 8 -10 6 -12 19 -7 45 5 26 2 43 -9 58 -18 27 -19 58 -3 93 10 23
9 29 -16 51 -20 19 -25 31 -20 47 7 25 52 87 62 87 18 -1 38 -23 57 -62 29
-61 46 -60 74 7 13 30 20 62 17 70 -8 22 -33 18 -39 -5 -7 -29 -30 -25 -55 10
-32 42 -52 51 -83 35z"/>
<path d="M8921 8040 c-44 -46 -51 -48 -69 -20 -7 11 -17 20 -22 20 -22 0 -21
-32 1 -85 26 -63 51 -72 67 -25 15 40 57 81 77 74 8 -4 27 -26 42 -51 l26 -44
-29 -30 c-26 -27 -27 -32 -16 -62 16 -45 15 -62 -4 -78 -12 -10 -15 -24 -10
-55 3 -25 1 -45 -6 -52 -21 -21 2 -25 42 -7 51 23 64 61 63 180 -1 115 -25
199 -68 242 -18 18 -38 33 -44 33 -6 0 -28 -18 -50 -40z"/>
<path d="M4433 7948 c-40 -28 -72 -85 -94 -163 -16 -58 -17 -60 -50 -60 -49 0
-50 -27 -1 -62 25 -18 51 -51 71 -90 32 -61 55 -83 98 -97 18 -6 20 -4 16 13
-3 11 4 35 16 55 l22 34 -21 40 c-19 36 -19 44 -8 87 12 45 12 48 -12 67 -15
12 -32 17 -47 13 -19 -4 -23 -1 -23 18 0 41 35 75 84 82 48 8 86 -7 123 -47
26 -27 73 -130 73 -158 0 -10 5 -22 10 -25 18 -11 11 82 -10 139 -56 148 -162
214 -247 154z"/>
<path d="M9554 7942 c-21 -16 -52 -47 -67 -69 -46 -67 -86 -223 -57 -223 5 0
14 19 21 42 45 169 164 245 262 167 18 -14 27 -30 27 -49 0 -27 -3 -29 -28
-24 -21 4 -33 -1 -51 -20 -21 -22 -23 -29 -13 -51 16 -35 15 -77 -3 -101 -19
-24 -19 -48 -1 -64 8 -6 16 -26 18 -43 2 -26 7 -31 23 -29 37 7 72 41 98 96
18 38 39 64 66 82 63 41 67 77 6 67 -31 -5 -35 -3 -40 23 -34 150 -94 224
-182 224 -28 0 -52 -9 -79 -28z"/>
<path d="M3231 7512 c-29 -5 -49 -23 -44 -39 3 -9 14 -6 36 10 18 12 34 23 36
24 10 6 -6 9 -28 5z"/>
<path d="M10918 7503 c-10 -12 -7 -13 14 -8 16 4 30 1 41 -9 17 -17 37 -21 37
-7 0 27 -73 46 -92 24z"/>
<path d="M10890 7465 c-6 -8 -10 -19 -8 -24 1 -6 8 1 15 14 13 28 11 31 -7 10z"/>
<path d="M3297 7450 c3 -11 9 -20 15 -20 5 0 4 9 -2 20 -6 11 -12 20 -14 20
-2 0 -2 -9 1 -20z"/>
<path d="M11033 7408 c34 -65 47 -114 56 -213 l8 -90 2 83 c1 102 -13 164 -51
220 -16 23 -31 42 -33 42 -3 0 6 -19 18 -42z"/>
<path d="M3163 7428 c-37 -45 -56 -116 -59 -213 -1 -55 0 -82 2 -60 12 113 27
181 49 227 24 51 28 71 8 46z"/>
<path d="M3325 7378 c31 -187 32 -285 6 -409 -19 -91 -52 -159 -78 -159 -8 0
-29 15 -46 33 -18 19 -53 56 -79 83 -54 59 -71 94 -94 206 -18 87 -18 85 21
238 6 24 6 25 -10 5 -46 -56 -59 -98 -60 -190 0 -141 4 -159 75 -295 10 -19
31 -48 46 -65 16 -16 27 -33 26 -37 -1 -5 3 -8 9 -8 5 0 27 -13 47 -29 39 -31
128 -81 144 -81 6 0 0 17 -13 38 -40 66 -48 84 -42 98 7 19 32 5 49 -28 19
-36 23 -33 28 18 2 21 10 80 17 129 17 111 16 315 -1 375 -7 25 -14 50 -16 55
-6 25 -24 65 -30 65 -4 0 -3 -19 1 -42z"/>
<path d="M10847 7383 c-45 -107 -55 -302 -24 -486 10 -60 15 -117 12 -128 -10
-30 12 -23 31 11 38 63 69 39 35 -26 -12 -21 -21 -44 -21 -51 0 -7 51 18 113
56 94 59 116 77 140 118 15 26 30 55 34 63 3 8 12 22 19 30 7 8 13 20 13 25 1
6 6 26 13 45 19 56 16 209 -5 245 -9 17 -17 35 -17 41 0 6 -12 24 -26 40 -19
21 -24 23 -19 9 5 -11 15 -52 24 -92 13 -62 13 -82 2 -150 -15 -90 -48 -162
-93 -201 -17 -15 -38 -35 -47 -46 -39 -45 -74 -76 -86 -76 -30 0 -65 67 -86
161 -17 77 -20 115 -16 209 3 63 12 143 20 178 15 70 8 81 -16 25z"/>
<path d="M4540 7221 c0 -10 7 -24 15 -31 12 -10 16 -9 21 4 6 16 -11 46 -27
46 -5 0 -9 -8 -9 -19z"/>
<path d="M9562 7223 c-10 -19 -6 -43 7 -43 7 0 31 43 31 55 0 13 -30 3 -38
-12z"/>
<path d="M4952 7148 c-39 -50 -64 -139 -43 -153 12 -7 31 26 31 52 0 10 11 35
25 55 14 20 25 42 25 47 0 15 -25 14 -38 -1z"/>
<path d="M7928 7144 c-2 -9 -1 -39 0 -65 3 -41 7 -49 24 -49 16 0 19 4 13 23
-3 12 -11 41 -17 65 -10 46 -15 51 -20 26z"/>
<path d="M8307 7110 c-7 -58 -1 -100 14 -100 10 0 10 94 0 130 -6 20 -9 15
-14 -30z"/>
<path d="M9120 7150 c0 -6 11 -26 24 -43 14 -18 28 -45 32 -62 8 -36 23 -57
35 -49 29 17 -31 157 -69 162 -12 2 -22 -2 -22 -8z"/>
<path d="M6108 7098 c-17 -56 -16 -68 8 -68 11 0 14 14 14 60 0 33 -1 60 -3
60 -2 0 -10 -24 -19 -52z"/>
<path d="M5751 7077 c-1 -43 3 -66 9 -62 12 7 12 82 0 110 -6 14 -9 -1 -9 -48z"/>
<path d="M3111 7074 c0 -11 3 -14 6 -6 3 7 2 16 -1 19 -3 4 -6 -2 -5 -13z"/>
<path d="M11082 7060 c0 -19 2 -27 5 -17 2 9 2 25 0 35 -3 9 -5 1 -5 -18z"/>
<path d="M3110 7043 c0 -5 5 -15 10 -23 8 -12 10 -11 10 8 0 12 -4 22 -10 22
-5 0 -10 -3 -10 -7z"/>
<path d="M4017 7012 c-30 -32 -14 -92 24 -92 28 0 45 47 27 79 -17 32 -31 35
-51 13z"/>
<path d="M4158 7002 c-51 -54 -61 -87 -48 -158 7 -35 18 -71 26 -81 12 -16 13
-13 8 27 -4 25 -8 47 -10 49 -7 8 38 82 52 88 10 3 30 -8 53 -31 20 -20 42
-36 48 -36 6 0 16 -6 22 -14 6 -7 39 -21 74 -31 34 -9 71 -26 83 -36 20 -19
21 -19 33 5 27 50 2 73 -141 126 -31 12 -76 40 -100 61 -66 60 -71 62 -100 31z"/>
<path d="M9898 6979 c-66 -54 -120 -82 -178 -93 -20 -3 -51 -19 -70 -35 l-35
-28 20 -37 19 -36 14 25 c12 23 24 30 46 26 4 -1 13 2 20 7 6 6 27 13 46 17
44 9 107 45 139 79 35 38 56 33 80 -18 15 -30 20 -54 16 -80 -9 -51 10 -45 24
8 19 76 14 106 -25 163 -20 29 -40 53 -45 53 -4 0 -36 -23 -71 -51z"/>
<path d="M10097 7012 c-21 -23 -22 -65 -2 -82 39 -32 81 29 51 75 -20 30 -28
31 -49 7z"/>
<path d="M4875 6770 c-3 -5 0 -22 9 -37 8 -16 20 -42 26 -60 7 -18 23 -39 37
-48 24 -16 25 -16 18 5 -14 44 -67 150 -75 150 -5 0 -12 -4 -15 -10z"/>
<path d="M9213 6768 c-15 -21 -74 -160 -70 -165 3 -2 19 13 37 34 42 50 75
143 51 143 -5 0 -13 -6 -18 -12z"/>
<path d="M4440 6593 c0 -5 5 -15 10 -23 8 -12 10 -11 10 8 0 12 -4 22 -10 22
-5 0 -10 -3 -10 -7z"/>
<path d="M9682 6580 c0 -14 2 -19 5 -12 2 6 2 18 0 25 -3 6 -5 1 -5 -13z"/>
<path d="M6536 6509 c3 -30 7 -86 9 -125 4 -105 4 -106 16 -99 7 5 8 33 4 84
-11 128 -13 145 -24 171 -9 20 -10 14 -5 -31z"/>
<path d="M5164 6528 c-6 -7 -18 -32 -29 -55 -10 -24 -24 -43 -31 -43 -24 0
-25 -19 -3 -77 11 -32 34 -96 50 -143 16 -47 36 -98 46 -115 9 -16 20 -52 24
-79 5 -27 12 -53 18 -59 13 -13 48 8 117 74 69 65 71 62 -51 74 -38 4 -76 12
-82 17 -14 11 -60 149 -68 202 -3 18 3 52 14 80 16 44 20 47 29 30 5 -10 12
-54 14 -96 4 -76 5 -78 44 -109 21 -17 62 -42 89 -56 28 -14 62 -34 77 -44 28
-20 63 -25 72 -10 14 22 -12 44 -103 87 -53 25 -108 57 -123 71 -33 32 -45 96
-27 146 10 30 9 39 -7 73 -20 41 -53 56 -70 32z"/>
<path d="M7486 6483 c-3 -32 -9 -92 -12 -133 -4 -62 -3 -72 7 -55 12 18 26
245 16 245 -3 0 -7 -26 -11 -57z"/>
<path d="M8893 6532 c-7 -5 -21 -26 -32 -48 -18 -35 -18 -41 -4 -56 23 -26 13
-111 -18 -144 -21 -23 -196 -114 -219 -114 -13 0 -32 -39 -25 -50 8 -13 48
-13 61 -1 5 5 45 28 89 50 44 22 95 54 113 71 30 28 32 34 32 97 0 73 7 113
20 113 12 0 45 -92 42 -115 -6 -41 -55 -190 -67 -204 -7 -7 -51 -17 -101 -22
-116 -13 -124 -15 -93 -36 13 -9 50 -41 82 -70 32 -29 64 -53 72 -53 19 0 35
32 35 71 0 17 9 46 20 63 28 46 111 265 117 309 4 30 2 37 -12 37 -10 0 -24
18 -37 48 -27 60 -45 73 -75 54z"/>
<path d="M4969 6367 c-43 -65 -78 -81 -112 -49 -29 27 -44 28 -52 3 -3 -11
-21 -26 -40 -35 -42 -20 -116 -7 -166 30 -44 32 -47 20 -16 -77 l23 -74 74
-13 c100 -18 269 -10 335 15 41 15 51 23 53 45 3 28 -43 194 -57 202 -4 3 -23
-18 -42 -47z"/>
<path d="M9082 6368 c-60 -162 -59 -176 18 -203 97 -34 399 -27 426 10 16 21
48 145 40 153 -4 3 -15 1 -24 -6 -37 -27 -89 -44 -135 -46 -43 -1 -52 3 -78
32 -34 38 -40 39 -64 12 -10 -11 -28 -20 -40 -20 -25 0 -88 64 -100 99 -10 33
-22 25 -43 -31z"/>
<path d="M5027 5943 c-13 -12 -7 -81 8 -93 22 -19 45 -5 44 27 0 15 -3 22 -6
16 -2 -7 -11 -13 -18 -13 -23 0 -29 22 -11 36 10 7 15 17 11 23 -7 12 -19 14
-28 4z"/>
<path d="M9057 5943 c-12 -11 -8 -23 8 -23 8 0 15 -9 15 -20 0 -22 -19 -27
-37 -9 -17 17 -26 -7 -13 -31 25 -47 84 17 61 66 -11 24 -22 30 -34 17z"/>
<path d="M4752 5928 c-7 -7 -12 -19 -12 -29 0 -29 21 -77 37 -83 20 -8 43 11
43 37 0 19 -1 19 -18 3 -18 -15 -19 -15 -31 10 -9 20 -9 29 1 41 10 13 14 13
25 -3 16 -21 17 -11 3 17 -12 22 -30 25 -48 7z"/>
<path d="M9326 5925 c-9 -24 -7 -32 3 -16 5 7 14 10 20 7 13 -9 14 -36 1 -56
-8 -12 -13 -13 -30 -2 -17 11 -20 10 -20 -7 0 -10 6 -24 14 -30 34 -28 84 43
66 94 -9 25 -45 32 -54 10z"/>
<path d="M5078 5665 c-9 -21 -8 -33 5 -61 21 -44 50 -43 55 1 3 26 2 27 -13
15 -14 -12 -18 -12 -26 1 -13 20 -11 29 6 35 19 8 19 20 0 28 -10 4 -20 -3
-27 -19z"/>
<path d="M8994 5679 c-4 -7 1 -16 10 -21 12 -7 14 -13 6 -29 -13 -24 -27 -25
-33 -1 -4 16 -5 16 -12 -2 -10 -22 5 -50 28 -54 26 -5 54 61 39 93 -12 27 -26
32 -38 14z"/>
<path d="M4796 5664 c-19 -48 8 -124 44 -124 19 0 30 19 30 52 0 18 -1 18 -16
4 -20 -20 -30 -20 -38 0 -10 27 -7 54 9 60 8 4 12 10 9 15 -9 14 -31 10 -38
-7z"/>
<path d="M9280 5671 c0 -5 7 -11 15 -15 9 -3 15 -18 15 -37 0 -29 -2 -31 -31
-27 -27 4 -30 2 -27 -21 2 -20 9 -26 28 -26 18 0 30 9 44 36 17 32 18 40 7 68
-8 19 -21 31 -32 31 -11 0 -19 -4 -19 -9z"/>
<path d="M4851 5634 c0 -11 3 -14 6 -6 3 7 2 16 -1 19 -3 4 -6 -2 -5 -13z"/>
<path d="M9250 5625 c0 -8 2 -15 4 -15 2 0 6 7 10 15 3 8 1 15 -4 15 -6 0 -10
-7 -10 -15z"/>
<path d="M5122 5378 c-7 -7 -12 -31 -12 -53 0 -51 30 -86 58 -69 19 12 29 54
13 54 -6 0 -11 -4 -11 -10 0 -5 -6 -10 -14 -10 -15 0 -26 21 -26 51 0 16 5 19
20 14 25 -8 26 11 2 24 -13 7 -23 6 -30 -1z"/>
<path d="M8947 5372 c-21 -24 -22 -39 -1 -21 13 10 17 10 25 -2 12 -19 11 -22
-5 -44 -11 -16 -17 -17 -29 -7 -20 17 -31 -1 -17 -28 14 -25 35 -25 60 0 24
24 27 82 4 104 -19 20 -17 20 -37 -2z"/>
<path d="M4807 5369 c-22 -13 -23 -79 -2 -119 19 -36 58 -41 76 -9 14 26 4 83
-18 100 -15 12 -16 12 -9 -6 18 -43 18 -65 2 -71 -39 -15 -62 51 -30 87 18 20
6 32 -19 18z"/>
<path d="M9286 5372 c-3 -6 1 -15 9 -22 31 -25 6 -100 -29 -87 -18 7 -21 39
-6 68 6 10 7 19 2 19 -12 0 -32 -46 -32 -71 0 -33 19 -59 44 -59 28 0 39 13
55 62 10 30 10 43 -1 64 -14 30 -33 41 -42 26z"/>
<path d="M3621 5884 c0 -11 3 -14 6 -6 3 7 2 16 -1 19 -3 4 -6 -2 -5 -13z"/>
<path d="M3651 5724 c0 -11 3 -14 6 -6 3 7 2 16 -1 19 -3 4 -6 -2 -5 -13z"/>
<path d="M10551 5884 c0 -11 3 -14 6 -6 3 7 2 16 -1 19 -3 4 -6 -2 -5 -13z"/>
<path d="M10522 5730 c0 -14 2 -19 5 -12 2 6 2 18 0 25 -3 6 -5 1 -5 -13z"/>
<path d="M3060 2647 c-97 -48 -236 -169 -245 -214 l-6 -32 38 5 c217 30 281
52 334 112 37 42 40 98 6 130 -30 28 -69 28 -127 -1z"/>
<path d="M2785 1850 c11 -5 27 -9 35 -9 9 0 8 4 -5 9 -11 5 -27 9 -35 9 -9 0
-8 -4 5 -9z"/>
<path d="M11258 1843 c7 -3 16 -2 19 1 4 3 -2 6 -13 5 -11 0 -14 -3 -6 -6z"/>
<path d="M3040 1825 c0 -5 5 -17 10 -25 5 -8 10 -10 10 -5 0 6 -5 17 -10 25
-5 8 -10 11 -10 5z"/>
<path d="M11090 1819 c0 -5 5 -7 10 -4 6 3 10 8 10 11 0 2 -4 4 -10 4 -5 0
-10 -5 -10 -11z"/>
<path d="M2978 1813 c7 -3 16 -2 19 1 4 3 -2 6 -13 5 -11 0 -14 -3 -6 -6z"/>
<path d="M3320 1794 c0 -13 18 -39 24 -34 2 3 -2 14 -10 24 -8 11 -14 16 -14
10z"/>
<path d="M10915 1790 l-20 -9 20 0 c11 0 29 4 40 9 l20 9 -20 0 c-11 0 -29 -4
-40 -9z"/>
<path d="M10783 1773 c-13 -2 -23 -9 -23 -15 0 -5 7 -7 16 -4 9 3 22 6 30 6 8
0 14 5 14 10 0 6 -3 9 -7 9 -5 -1 -18 -4 -30 -6z"/>
<path d="M3405 1751 c-3 -6 0 -11 7 -12 7 0 26 -3 43 -5 16 -3 26 -2 22 2 -4
4 -13 9 -20 10 -7 1 -19 5 -28 9 -10 3 -20 2 -24 -4z"/>
<path d="M3640 1740 c0 -5 -9 -10 -20 -10 -11 0 -20 -5 -20 -11 0 -5 4 -8 9
-4 5 3 13 0 17 -6 4 -8 9 -7 15 2 7 11 9 11 9 -2 0 -9 9 -24 20 -34 24 -21 26
-8 8 42 -11 30 -38 47 -38 23z"/>
<path d="M10605 1740 c-3 -5 1 -10 10 -10 9 0 13 5 10 10 -3 6 -8 10 -10 10
-2 0 -7 -4 -10 -10z"/>
<path d="M3515 1730 c3 -5 12 -7 20 -3 21 7 19 13 -6 13 -11 0 -18 -4 -14 -10z"/>
<path d="M10458 1713 c7 -3 16 -2 19 1 4 3 -2 6 -13 5 -11 0 -14 -3 -6 -6z"/>
<path d="M3990 1660 c-11 -7 -7 -10 18 -10 20 0 31 4 27 10 -8 13 -26 13 -45
0z"/>
<path d="M10050 1660 c-12 -8 -11 -10 8 -10 12 0 22 5 22 10 0 13 -11 13 -30
0z"/>
<path d="M4185 1629 c56 -11 97 -11 90 1 -3 6 -34 9 -68 9 -59 -1 -60 -2 -22
-10z"/>
<path d="M9785 1630 c-25 -7 -22 -8 17 -6 26 1 51 5 54 9 9 9 -32 7 -71 -3z"/>
<path d="M9913 1633 c9 -2 23 -2 30 0 6 3 -1 5 -18 5 -16 0 -22 -2 -12 -5z"/>
<path d="M9640 1610 l-45 -7 42 -1 c23 -1 45 3 48 8 3 6 5 9 3 8 -2 0 -23 -4
-48 -8z"/>
<path d="M9470 1590 c0 -5 5 -10 10 -10 6 0 10 5 10 10 0 6 -4 10 -10 10 -5 0
-10 -4 -10 -10z"/>
<path d="M9350 1580 c-10 -7 0 -8 34 -5 27 3 51 7 54 10 10 9 -73 5 -88 -5z"/>
<path d="M9105 1550 c3 -5 12 -7 20 -3 21 7 19 13 -6 13 -11 0 -18 -4 -14 -10z"/>
<path d="M5238 1523 c23 -2 61 -2 85 0 23 2 4 4 -43 4 -47 0 -66 -2 -42 -4z"/>
<path d="M8777 1523 c18 -2 50 -2 70 0 21 2 7 4 -32 4 -38 0 -55 -2 -38 -4z"/>
<path d="M5538 1503 c12 -2 32 -2 45 0 12 2 2 4 -23 4 -25 0 -35 -2 -22 -4z"/>
<path d="M5637 1499 c19 -6 40 -5 55 0 18 8 12 10 -32 9 -50 0 -52 -1 -23 -9z"/>
<path d="M8345 1500 c-26 -7 -23 -8 20 -8 28 0 73 3 100 8 50 7 50 7 -20 7
-38 1 -83 -3 -100 -7z"/>
<path d="M6070 1480 c-13 -10 -13 -11 1 -7 9 3 66 2 126 -2 61 -4 132 -4 159
0 39 5 29 7 -52 8 -56 0 -128 3 -160 7 -37 3 -65 1 -74 -6z"/>
<path d="M7790 1480 c-74 -3 -110 -7 -80 -9 98 -4 231 0 253 9 19 8 19 9 -8 7
-16 0 -91 -4 -165 -7z"/>
<path d="M10985 2664 c-50 -26 -92 -73 -121 -138 -34 -75 -64 -185 -53 -191 4
-3 10 -1 13 4 3 4 29 20 58 35 106 54 134 72 186 124 42 43 52 59 52 86 0 48
-8 65 -41 81 -36 19 -57 19 -94 -1z"/>
<path d="M6962 2672 c-36 -11 -89 -59 -117 -106 -31 -53 -75 -177 -75 -211 l0
-26 28 18 c15 10 58 34 96 53 39 20 95 60 128 91 49 48 58 62 58 92 0 49 -8
65 -41 82 -30 16 -41 17 -77 7z"/>
<path d="M8753 2660 c-66 -34 -114 -107 -152 -236 -25 -86 -27 -101 -7 -85 8
7 46 28 85 47 40 19 69 39 66 44 -3 6 1 7 9 4 10 -4 37 16 75 53 55 53 61 63
61 100 0 79 -61 111 -137 73z"/>
</g>
</svg>
